<?xml version="1.0" standalone="yes"?>
<svg xmlns="http://www.w3.org/2000/svg" width="512" height="512">
<path style="fill:#fefeff; stroke:none;" d="M0 0L0 512L512 512L512 0L0 0z"/>
<path style="fill:#999ea2; stroke:none;" d="M121.667 86.3333L122.333 86.6667L121.667 86.3333z"/>
<path style="fill:#62686f; stroke:none;" d="M123 86L123 87L129 87L123 86z"/>
<path style="fill:#999ea2; stroke:none;" d="M129.667 86.3333L130.333 86.6667L129.667 86.3333M246.667 86.3333L247.333 86.6667L246.667 86.3333z"/>
<path style="fill:#62686f; stroke:none;" d="M248 86L248 87L254 87L248 86z"/>
<path style="fill:#999ea2; stroke:none;" d="M254.667 86.3333L255.333 86.6667L254.667 86.3333M118 87L119 88L118 87z"/>
<path style="fill:#62686f; stroke:none;" d="M119 87L120 88L119 87z"/>
<path style="fill:#050404; stroke:none;" d="M120 87.5324C106.926 90.6471 107.111 101.259 102.292 111C89.191 137.48 82.3306 163.574 90.4252 193C97.1808 217.559 113.016 239.415 135 252.547C142.243 256.873 149.94 260.477 158 262.975C162.353 264.324 168.346 264.705 170.821 269.109C175.708 277.807 172 297.114 172 307C172 345.131 164.867 388.212 200 413.841C205.451 417.818 211.627 420.738 218 422.921C227.655 426.229 238.884 427.025 249 425.711C256.259 424.767 263.467 422.478 270 419.191C317.322 395.374 307 337.759 307 294C307 274.247 302.348 248.289 323 236.905C345.105 224.72 364.897 246.748 364.999 268C365.077 284.094 356.916 283.98 347.184 295.001C340.136 302.983 336.383 313.381 336.043 324C334.739 364.818 388.032 384.709 414.816 354.985C429.366 338.838 429.895 312.967 416.482 296.001C412.153 290.524 401.206 286.779 398.603 280.787C395.175 272.895 398.184 259.716 396.866 251C393.476 228.583 376.39 209.827 355 203.029C346.282 200.258 337.031 199.439 328 200.729C301.967 204.449 281.206 223.168 275.425 249C272.752 260.946 274 273.819 274 286C274 310.253 275.06 334.774 273.961 359C272.794 384.706 244.065 401.156 222 387.532C195.728 371.31 205 326.222 205 300C205 291.73 202.065 276.43 206.179 269.109C209.138 263.843 217.839 263.441 223 261.564C234.086 257.533 245.169 251.709 254 243.826C292.386 209.565 299.742 157.602 275.594 113C271.851 106.087 272.106 97.985 265.895 92.3295C251.853 79.5445 228.708 90.3123 228.576 109C228.467 124.355 240.57 124.129 248.034 133.278C253.997 140.587 255.961 152.9 256.83 162C262.019 216.338 194.702 253.241 151 222.56C123.932 203.557 110.711 166.272 127.263 136.019C132.327 126.762 144.652 127.192 147.471 115C151.391 98.0393 137.06 83.4681 120 87.5324z"/>
<path style="fill:#62686f; stroke:none;" d="M132 87L133 88L132 87z"/>
<path style="fill:#999ea2; stroke:none;" d="M133 87L134 88L133 87M242.667 87.3333L243.333 87.6667L242.667 87.3333z"/>
<path style="fill:#62686f; stroke:none;" d="M244 87L245 88L244 87M257 87L258 88L257 87z"/>
<path style="fill:#999ea2; stroke:none;" d="M258 87L259 88L258 87z"/>
<path style="fill:#62686f; stroke:none;" d="M116 88L117 89L116 88M135 88L136 89L135 88z"/>
<path style="fill:#999ea2; stroke:none;" d="M136 88L137 89L136 88M240 88L241 89L240 88z"/>
<path style="fill:#62686f; stroke:none;" d="M241 88L242 89L241 88z"/>
<path style="fill:#999ea2; stroke:none;" d="M260 88L261 89L260 88z"/>
<path style="fill:#62686f; stroke:none;" d="M114 89L115 90L114 89M137 89L138 90L137 89M239 89L240 90L239 89z"/>
<path style="fill:#999ea2; stroke:none;" d="M262 89L263 90L262 89M112 90L113 91L112 90z"/>
<path style="fill:#62686f; stroke:none;" d="M113 90L114 91L113 90M138 90L139 91L138 90z"/>
<path style="fill:#999ea2; stroke:none;" d="M139 90L140 91L139 90M237 90L238 91L237 90z"/>
<path style="fill:#62686f; stroke:none;" d="M263 90L264 91L263 90z"/>
<path style="fill:#999ea2; stroke:none;" d="M264 90L265 91L264 90M111 91L112 92L111 91M140 91L141 92L140 91z"/>
<path style="fill:#62686f; stroke:none;" d="M236 91L237 92L236 91z"/>
<path style="fill:#999ea2; stroke:none;" d="M265 91L266 92L265 91M110 92L111 93L110 92z"/>
<path style="fill:#62686f; stroke:none;" d="M141 92L142 93L141 92M235 92L236 93L235 92z"/>
<path style="fill:#999ea2; stroke:none;" d="M266 92L267 93L266 92z"/>
<path style="fill:#62686f; stroke:none;" d="M109 93L110 94L109 93M142 93L143 94L142 93M234 93L235 94L234 93z"/>
<path style="fill:#999ea2; stroke:none;" d="M267 93L268 94L267 93M108 94L109 95L108 94M143 94L144 95L143 94z"/>
<path style="fill:#62686f; stroke:none;" d="M233 94L234 95L233 94z"/>
<path style="fill:#999ea2; stroke:none;" d="M268 94L269 95L268 94M107 95L108 96L107 95M144 95L145 96L144 95M232 95L233 96L232 95M269 95L270 96L269 95z"/>
<path style="fill:#62686f; stroke:none;" d="M107 96L108 97L107 96z"/>
<path style="fill:#999ea2; stroke:none;" d="M231 96L232 97L231 96z"/>
<path style="fill:#62686f; stroke:none;" d="M269 96L270 97L269 96M106 97L107 98L106 97M145 97L146 98L145 97M231 97L232 98L231 97z"/>
<path style="fill:#999ea2; stroke:none;" d="M270 97L271 98L270 97z"/>
<path style="fill:#62686f; stroke:none;" d="M122.004 98.7423C108.195 104.069 117.115 124.932 130.957 118.991C143.352 113.67 135.008 93.7263 122.004 98.7423z"/>
<path style="fill:#999ea2; stroke:none;" d="M146 98L147 99L146 98M230 98L231 99L230 98z"/>
<path style="fill:#62686f; stroke:none;" d="M247.015 98.6528C233.048 103.127 241.101 124.635 254.996 119.258C268.293 114.113 260.359 94.3776 247.015 98.6528M270 98L271 99L270 98M105 99L106 100L105 99M146 99L147 100L146 99M230 99L231 100L230 99z"/>
<path style="fill:#999ea2; stroke:none;" d="M271 99L272 100L271 99M147.333 100.667L147.667 101.333L147.333 100.667M229 100L230 101L229 100z"/>
<path style="fill:#62686f; stroke:none;" d="M271 100L272 101L271 100z"/>
<path style="fill:#999ea2; stroke:none;" d="M104 101L105 102L104 101z"/>
<path style="fill:#62686f; stroke:none;" d="M229.333 101.667L229.667 102.333L229.333 101.667z"/>
<path style="fill:#999ea2; stroke:none;" d="M272 101L273 102L272 101z"/>
<path style="fill:#62686f; stroke:none;" d="M104 102L105 103L104 102M147 102L148 103L147 102M272.333 102.667L272.667 103.333L272.333 102.667z"/>
<path style="fill:#999ea2; stroke:none;" d="M228.333 103.667L228.667 104.333L228.333 103.667M103.333 104.667L103.667 105.333L103.333 104.667M148.333 104.667L148.667 105.333L148.333 104.667z"/>
<path style="fill:#62686f; stroke:none;" d="M228 105L228 108L229 108L228 105z"/>
<path style="fill:#999ea2; stroke:none;" d="M273 105L273 108L274 108L273 105z"/>
<path style="fill:#62686f; stroke:none;" d="M103 106L103 110L104 110L103 106M148 106L148 112L149 112L148 106M273.333 108.667L273.667 109.333L273.333 108.667z"/>
<path style="fill:#999ea2; stroke:none;" d="M102 110L103 111L102 110z"/>
<path style="fill:#62686f; stroke:none;" d="M228 110L228 113L229 113L228 110z"/>
<path style="fill:#999ea2; stroke:none;" d="M274 110L275 111L274 110z"/>
<path style="fill:#62686f; stroke:none;" d="M274 111L275 112L274 111M101 112L102 113L101 112z"/>
<path style="fill:#999ea2; stroke:none;" d="M148.333 112.667L148.667 113.333L148.333 112.667M275 112L276 113L275 112M100 113L101 114L100 113M228.333 113.667L228.667 114.333L228.333 113.667M276 113L277 114L276 113z"/>
<path style="fill:#62686f; stroke:none;" d="M100 114L101 115L100 114M276 114L277 115L276 114z"/>
<path style="fill:#999ea2; stroke:none;" d="M99 115L100 116L99 115z"/>
<path style="fill:#62686f; stroke:none;" d="M147 115L148 116L147 115z"/>
<path style="fill:#999ea2; stroke:none;" d="M277 115L278 116L277 115M147.333 116.667L147.667 117.333L147.333 116.667z"/>
<path style="fill:#62686f; stroke:none;" d="M229 116L230 117L229 116M277 116L278 117L277 116M98 117L99 118L98 117z"/>
<path style="fill:#999ea2; stroke:none;" d="M229 117L230 118L229 117M278 117L279 118L278 117z"/>
<path style="fill:#62686f; stroke:none;" d="M146 118L147 119L146 118M230 118L231 119L230 118M278 118L279 119L278 118M97 119L98 120L97 119z"/>
<path style="fill:#999ea2; stroke:none;" d="M146 119L147 120L146 119M230 119L231 120L230 119M279 119L280 120L279 119z"/>
<path style="fill:#62686f; stroke:none;" d="M145 120L146 121L145 120M231 120L232 121L231 120M96 121L97 122L96 121z"/>
<path style="fill:#999ea2; stroke:none;" d="M231 121L232 122L231 121M280 121L281 122L280 121M144 122L145 123L144 122M232 122L233 123L232 122z"/>
<path style="fill:#62686f; stroke:none;" d="M280 122L281 123L280 122z"/>
<path style="fill:#999ea2; stroke:none;" d="M95 123L96 124L95 123z"/>
<path style="fill:#62686f; stroke:none;" d="M107 124L107 125L111 126L109 123L107 124M143 123L144 124L143 123M233 123L234 124L233 123M268 123L270 125L268 123z"/>
<path style="fill:#999ea2; stroke:none;" d="M281 123L282 124L281 123z"/>
<path style="fill:#fefeff; stroke:none;" d="M108 124C98.6341 146.835 95.3598 168.948 102.424 193C104.07 198.604 114.768 227.829 122.574 216.937C126.413 211.581 113.568 194.481 111.746 188C106.104 167.926 109.246 148.899 117 130L108 124z"/>
<path style="fill:#62686f; stroke:none;" d="M142 124L143 125L142 124M234 124L235 125L234 124z"/>
<path style="fill:#999ea2; stroke:none;" d="M267 124L268 125L267 124z"/>
<path style="fill:#fefeff; stroke:none;" d="M268 124L260 130C267.949 149.381 271.195 169.623 264.481 190C262.355 196.451 249.851 212.337 255.191 217.833C263.044 225.913 272.426 199.492 274.115 194C280.533 173.133 281.999 142.498 268 124z"/>
<path style="fill:#62686f; stroke:none;" d="M281 124L282 125L281 124z"/>
<path style="fill:#999ea2; stroke:none;" d="M94 125L95 126L94 125M107 125L108 126L107 125z"/>
<path style="fill:#62686f; stroke:none;" d="M141 125L142 126L141 125M235 125L236 126L235 125M266 125L267 126L266 125z"/>
<path style="fill:#999ea2; stroke:none;" d="M269 125L270 126L269 125M282 125L283 126L282 125z"/>
<path style="fill:#62686f; stroke:none;" d="M94 126L95 127L94 126M106 126L107 127L106 126z"/>
<path style="fill:#999ea2; stroke:none;" d="M111 126L112 127L111 126z"/>
<path style="fill:#62686f; stroke:none;" d="M140 126L141 127L140 126M236 126L237 127L236 126z"/>
<path style="fill:#999ea2; stroke:none;" d="M265 126L266 127L265 126z"/>
<path style="fill:#62686f; stroke:none;" d="M270 126L271 127L270 126M282 126L283 127L282 126z"/>
<path style="fill:#999ea2; stroke:none;" d="M93 127L94 128L93 127M106 127L107 128L106 127M112 127L114 129L112 127z"/>
<path style="fill:#62686f; stroke:none;" d="M113 127L114 128L113 127z"/>
<path style="fill:#999ea2; stroke:none;" d="M139 127L140 128L139 127M237 127L238 128L237 127z"/>
<path style="fill:#62686f; stroke:none;" d="M263 127L264 128L263 127z"/>
<path style="fill:#999ea2; stroke:none;" d="M264 127L265 128L264 127M270 127L271 131L272 131L270 127M283.333 127.667L283.667 128.333L283.333 127.667z"/>
<path style="fill:#62686f; stroke:none;" d="M93 128L94 129L93 128M105 128L106 129L105 128M114 128L115 129L114 128M137 128L138 129L137 128z"/>
<path style="fill:#999ea2; stroke:none;" d="M238 128L239 129L238 128z"/>
<path style="fill:#62686f; stroke:none;" d="M239 128L240 129L239 128M262 128L263 129L262 128M271 128L272 129L271 128z"/>
<path style="fill:#999ea2; stroke:none;" d="M105 129L106 130L105 129M115 129L116 130L115 129z"/>
<path style="fill:#62686f; stroke:none;" d="M116 129L117 130L116 129M135 129L136 130L135 129z"/>
<path style="fill:#999ea2; stroke:none;" d="M136 129L137 130L136 129M240 129L241 130L240 129z"/>
<path style="fill:#62686f; stroke:none;" d="M241 129L242 130L241 129M260 129L261 130L260 129z"/>
<path style="fill:#999ea2; stroke:none;" d="M261 129L262 130L261 129z"/>
<path style="fill:#62686f; stroke:none;" d="M283 129L284 130L283 129z"/>
<path style="fill:#999ea2; stroke:none;" d="M92 130L93 131L92 130z"/>
<path style="fill:#62686f; stroke:none;" d="M104.333 130.667L104.667 131.333L104.333 130.667M117 130L118 131L117 130M132 130L133 131L132 130z"/>
<path style="fill:#999ea2; stroke:none;" d="M133.667 130.333L134.333 130.667L133.667 130.333M242.667 130.333L243.333 130.667L242.667 130.333z"/>
<path style="fill:#62686f; stroke:none;" d="M244 130L245 131L244 130M259 130L260 131L259 130z"/>
<path style="fill:#999ea2; stroke:none;" d="M284 130L285 131L284 130z"/>
<path style="fill:#62686f; stroke:none;" d="M92 131L93 132L92 131z"/>
<path style="fill:#999ea2; stroke:none;" d="M116 131L117 132L116 131z"/>
<path style="fill:#62686f; stroke:none;" d="M129 131L130 132L129 131z"/>
<path style="fill:#999ea2; stroke:none;" d="M130 131L131 132L130 131M246 131L248 133L246 131z"/>
<path style="fill:#62686f; stroke:none;" d="M247 131L248 132L247 131z"/>
<path style="fill:#999ea2; stroke:none;" d="M260 131L261 132L260 131z"/>
<path style="fill:#62686f; stroke:none;" d="M272 131L273 132L272 131M284 131L285 132L284 131z"/>
<path style="fill:#999ea2; stroke:none;" d="M104 132L105 133L104 132z"/>
<path style="fill:#62686f; stroke:none;" d="M116 132L117 133L116 132M260 132L261 133L260 132z"/>
<path style="fill:#999ea2; stroke:none;" d="M272 132L273 133L272 132M91 133L92 134L91 133z"/>
<path style="fill:#62686f; stroke:none;" d="M103 133L104 134L103 133z"/>
<path style="fill:#999ea2; stroke:none;" d="M115 133L116 134L115 133z"/>
<path style="fill:#62686f; stroke:none;" d="M128 133L129 134L128 133M248 133L249 134L248 133z"/>
<path style="fill:#999ea2; stroke:none;" d="M261 133L262 134L261 133z"/>
<path style="fill:#62686f; stroke:none;" d="M273 133L274 134L273 133z"/>
<path style="fill:#999ea2; stroke:none;" d="M285 133L286 134L285 133z"/>
<path style="fill:#62686f; stroke:none;" d="M91 134L92 135L91 134z"/>
<path style="fill:#999ea2; stroke:none;" d="M103.333 134.667L103.667 135.333L103.333 134.667z"/>
<path style="fill:#62686f; stroke:none;" d="M115 134L116 135L115 134z"/>
<path style="fill:#999ea2; stroke:none;" d="M248 134L249 135L248 134z"/>
<path style="fill:#62686f; stroke:none;" d="M261.333 134.667L261.667 135.333L261.333 134.667z"/>
<path style="fill:#999ea2; stroke:none;" d="M273.333 134.667L273.667 135.333L273.333 134.667z"/>
<path style="fill:#62686f; stroke:none;" d="M285.333 134.667L285.667 135.333L285.333 134.667z"/>
<path style="fill:#999ea2; stroke:none;" d="M90.3333 135.667L90.6667 136.333L90.3333 135.667z"/>
<path style="fill:#62686f; stroke:none;" d="M102.333 135.667L102.667 136.333L102.333 135.667z"/>
<path style="fill:#999ea2; stroke:none;" d="M114.333 135.667L114.667 136.333L114.333 135.667M127 135L128 136L127 135z"/>
<path style="fill:#62686f; stroke:none;" d="M249 135L250 136L249 135z"/>
<path style="fill:#999ea2; stroke:none;" d="M262.333 135.667L262.667 136.333L262.333 135.667M249 136L250 137L249 136z"/>
<path style="fill:#62686f; stroke:none;" d="M274 136L275 137L274 136z"/>
<path style="fill:#999ea2; stroke:none;" d="M286 136L287 137L286 136z"/>
<path style="fill:#62686f; stroke:none;" d="M90 137L91 138L90 137z"/>
<path style="fill:#999ea2; stroke:none;" d="M102 137L103 138L102 137z"/>
<path style="fill:#62686f; stroke:none;" d="M114 137L115 138L114 137M126 137L127 138L126 137M250 137L251 138L250 137M262 137L263 138L262 137z"/>
<path style="fill:#999ea2; stroke:none;" d="M274.333 137.667L274.667 138.333L274.333 137.667z"/>
<path style="fill:#62686f; stroke:none;" d="M286.333 137.667L286.667 138.333L286.333 137.667z"/>
<path style="fill:#999ea2; stroke:none;" d="M113 138L114 139L113 138M250 138L251 139L250 138M263.333 138.667L263.667 139.333L263.333 138.667M89.3333 139.667L89.6667 140.333L89.3333 139.667z"/>
<path style="fill:#62686f; stroke:none;" d="M101 139L102 140L101 139M113.333 139.667L113.667 140.333L113.333 139.667M125 139L126 140L125 139M251 139L252 140L251 139M275.333 139.667L275.667 140.333L275.333 139.667z"/>
<path style="fill:#999ea2; stroke:none;" d="M101.333 140.667L101.667 141.333L101.333 140.667M112.333 140.667L112.667 141.333L112.333 140.667M125 140L126 141L125 140M251 140L252 141L251 140z"/>
<path style="fill:#62686f; stroke:none;" d="M263 140L264 141L263 140z"/>
<path style="fill:#999ea2; stroke:none;" d="M287 140L288 141L287 140z"/>
<path style="fill:#62686f; stroke:none;" d="M89 141L90 142L89 141M124 141L125 142L124 141z"/>
<path style="fill:#999ea2; stroke:none;" d="M264.333 141.667L264.667 142.333L264.333 141.667M275.333 141.667L275.667 142.333L275.333 141.667z"/>
<path style="fill:#62686f; stroke:none;" d="M287.333 141.667L287.667 142.333L287.333 141.667M100.333 142.667L100.667 143.333L100.333 142.667M112.333 142.667L112.667 143.333L112.333 142.667z"/>
<path style="fill:#999ea2; stroke:none;" d="M124.333 142.667L124.667 143.333L124.333 142.667z"/>
<path style="fill:#62686f; stroke:none;" d="M252 142L253 143L252 142M276.333 142.667L276.667 143.333L276.333 142.667z"/>
<path style="fill:#999ea2; stroke:none;" d="M88.3333 143.667L88.6667 144.333L88.3333 143.667M252 143L253 144L252 143z"/>
<path style="fill:#62686f; stroke:none;" d="M264 143L265 144L264 143z"/>
<path style="fill:#999ea2; stroke:none;" d="M288 143L288 146L289 146L288 143M100.333 144.667L100.667 145.333L100.333 144.667M111.333 144.667L111.667 145.333L111.333 144.667z"/>
<path style="fill:#62686f; stroke:none;" d="M123 144L124 145L123 144z"/>
<path style="fill:#999ea2; stroke:none;" d="M276.333 144.667L276.667 145.333L276.333 144.667z"/>
<path style="fill:#62686f; stroke:none;" d="M88.3333 145.667L88.6667 146.333L88.3333 145.667z"/>
<path style="fill:#999ea2; stroke:none;" d="M123.333 145.667L123.667 146.333L123.333 145.667z"/>
<path style="fill:#62686f; stroke:none;" d="M253 145L254 146L253 145z"/>
<path style="fill:#999ea2; stroke:none;" d="M265 145L266 146L265 145z"/>
<path style="fill:#62686f; stroke:none;" d="M99.3333 146.667L99.6667 147.333L99.3333 146.667M111 146L112 147L111 146z"/>
<path style="fill:#999ea2; stroke:none;" d="M253 146L254 147L253 146z"/>
<path style="fill:#62686f; stroke:none;" d="M265.333 146.667L265.667 147.333L265.333 146.667M288.333 146.667L288.667 147.333L288.333 146.667M122.333 147.667L122.667 148.333L122.333 147.667M277.333 147.667L277.667 148.333L277.333 147.667z"/>
<path style="fill:#999ea2; stroke:none;" d="M87 148L87 151L88 151L87 148M99 148L99 151L100 151L99 148M110.333 148.667L110.667 149.333L110.333 148.667z"/>
<path style="fill:#62686f; stroke:none;" d="M254.333 148.667L254.667 149.333L254.333 148.667z"/>
<path style="fill:#999ea2; stroke:none;" d="M266 148L266 151L267 151L266 148M122.333 149.667L122.667 150.333L122.333 149.667M277 149L277 152L278 152L277 149M289.333 149.667L289.667 150.333L289.333 149.667z"/>
<path style="fill:#62686f; stroke:none;" d="M110 150L110 153L111 153L110 150z"/>
<path style="fill:#999ea2; stroke:none;" d="M254 150L255 151L254 150z"/>
<path style="fill:#62686f; stroke:none;" d="M87.3333 151.667L87.6667 152.333L87.3333 151.667M98 151L98 154L99 154L98 151M266 151L266 154L267 154L266 151M289 151L289 154L290 154L289 151z"/>
<path style="fill:#999ea2; stroke:none;" d="M109 152L109 157L110 157L109 152z"/>
<path style="fill:#62686f; stroke:none;" d="M121.333 152.667L121.667 153.333L121.333 152.667M255.333 152.667L255.667 153.333L255.333 152.667M278 152L278 156L279 156L278 152z"/>
<path style="fill:#999ea2; stroke:none;" d="M267 153L267 158L268 158L267 153M98 154L98 160L99 160L98 154M121.333 154.667L121.667 155.333L121.333 154.667M255 154L255 157L256 157L255 154M86 155L86 160L87 160L86 155M278 156L278 162L279 162L278 156M290 156L290 164L291 164L290 156z"/>
<path style="fill:#62686f; stroke:none;" d="M109 157L109 161L110 161L109 157M120 157L120 162L121 162L120 157M267 158L267 167L268 167L267 158M256 159L256 173L257 173L256 159M86 160L86 172L87 172L86 160M97 160L97 172L98 172L97 160z"/>
<path style="fill:#999ea2; stroke:none;" d="M120 162L120 169L121 169L120 162z"/>
<path style="fill:#62686f; stroke:none;" d="M290 164L290 168L291 168L290 164M267 168L267 174L268 174L267 168z"/>
<path style="fill:#999ea2; stroke:none;" d="M290 168L290 175L291 175L290 168z"/>
<path style="fill:#62686f; stroke:none;" d="M120 169L120 174L121 174L120 169M109 170L109 175L110 175L109 170z"/>
<path style="fill:#999ea2; stroke:none;" d="M278 170L278 176L279 176L278 170M98 171L98 177L99 177L98 171M86 172L86 176L87 176L86 172M255 174L255 177L256 177L255 174M267 174L267 178L268 178L267 174M109 175L109 179L110 179L109 175M121.333 176.667L121.667 177.333L121.333 176.667z"/>
<path style="fill:#62686f; stroke:none;" d="M278 176L278 180L279 180L278 176M98 177L98 180L99 180L98 177M255.333 177.667L255.667 178.333L255.333 177.667M289 177L289 180L290 180L289 177M121.333 178.667L121.667 179.333L121.333 178.667M266 178L266 181L267 181L266 178M87.3333 179.667L87.6667 180.333L87.3333 179.667M110.333 179.667L110.667 180.333L110.333 179.667z"/>
<path style="fill:#999ea2; stroke:none;" d="M277 179L277 183L278 183L277 179M99 180L99 183L100 183L99 180M122.333 180.667L122.667 181.333L122.333 180.667M254.333 180.667L254.667 181.333L254.333 180.667M289.333 180.667L289.667 181.333L289.333 180.667M87 181L87 184L88 184L87 181M110.333 181.667L110.667 182.333L110.333 181.667M266.333 181.667L266.667 182.333L266.333 181.667z"/>
<path style="fill:#62686f; stroke:none;" d="M122.333 182.667L122.667 183.333L122.333 182.667M254.333 182.667L254.667 183.333L254.333 182.667M99.3333 183.667L99.6667 184.333L99.3333 183.667M265.333 183.667L265.667 184.333L265.333 183.667M277.333 183.667L277.667 184.333L277.333 183.667M88 184L88 187L89 187L88 184M111.333 184.667L111.667 185.333L111.333 184.667z"/>
<path style="fill:#999ea2; stroke:none;" d="M253.333 184.667L253.667 185.333L253.333 184.667z"/>
<path style="fill:#62686f; stroke:none;" d="M288.333 184.667L288.667 185.333L288.333 184.667z"/>
<path style="fill:#999ea2; stroke:none;" d="M123 185L124 186L123 185M265.333 185.667L265.667 186.333L265.333 185.667M276.333 185.667L276.667 186.333L276.333 185.667M100.333 186.667L100.667 187.333L100.333 186.667M111.333 186.667L111.667 187.333L111.333 186.667z"/>
<path style="fill:#62686f; stroke:none;" d="M123 186L124 187L123 186M253 186L254 187L253 186z"/>
<path style="fill:#999ea2; stroke:none;" d="M288.333 186.667L288.667 187.333L288.333 186.667M88.3333 187.667L88.6667 188.333L88.3333 187.667z"/>
<path style="fill:#62686f; stroke:none;" d="M112.333 187.667L112.667 188.333L112.333 187.667M264.333 187.667L264.667 188.333L264.333 187.667M276.333 187.667L276.667 188.333L276.333 187.667M100.333 188.667L100.667 189.333L100.333 188.667z"/>
<path style="fill:#999ea2; stroke:none;" d="M124 188L125 189L124 188M252 188L253 189L252 188z"/>
<path style="fill:#62686f; stroke:none;" d="M89.3333 189.667L89.6667 190.333L89.3333 189.667z"/>
<path style="fill:#999ea2; stroke:none;" d="M101.333 189.667L101.667 190.333L101.333 189.667M112.333 189.667L112.667 190.333L112.333 189.667z"/>
<path style="fill:#62686f; stroke:none;" d="M124 189L125 190L124 189M252 189L253 190L252 189z"/>
<path style="fill:#999ea2; stroke:none;" d="M264.333 189.667L264.667 190.333L264.333 189.667M275.333 189.667L275.667 190.333L275.333 189.667z"/>
<path style="fill:#62686f; stroke:none;" d="M287 189L288 190L287 189z"/>
<path style="fill:#999ea2; stroke:none;" d="M125 190L126 191L125 190M251 190L252 191L251 190z"/>
<path style="fill:#62686f; stroke:none;" d="M263.333 190.667L263.667 191.333L263.333 190.667z"/>
<path style="fill:#999ea2; stroke:none;" d="M287.333 190.667L287.667 191.333L287.333 190.667M89 191L90 192L89 191z"/>
<path style="fill:#62686f; stroke:none;" d="M101.333 191.667L101.667 192.333L101.333 191.667M113 191L114 192L113 191M125 191L126 192L125 191M251 191L252 192L251 191M275 191L276 192L275 191z"/>
<path style="fill:#999ea2; stroke:none;" d="M113.333 192.667L113.667 193.333L113.333 192.667M263 192L264 193L263 192M274.333 192.667L274.667 193.333L274.333 192.667z"/>
<path style="fill:#62686f; stroke:none;" d="M90.3333 193.667L90.6667 194.333L90.3333 193.667z"/>
<path style="fill:#999ea2; stroke:none;" d="M102.333 193.667L102.667 194.333L102.333 193.667M126 193L127 194L126 193M250 193L251 194L250 193z"/>
<path style="fill:#62686f; stroke:none;" d="M262.333 193.667L262.667 194.333L262.333 193.667M286 193L287 194L286 193M114 194L115 195L114 194M126 194L127 195L126 194M250 194L251 195L250 194M274 194L275 195L274 194z"/>
<path style="fill:#999ea2; stroke:none;" d="M286.333 194.667L286.667 195.333L286.333 194.667M90 195L91 196L90 195z"/>
<path style="fill:#62686f; stroke:none;" d="M102 195L103 196L102 195z"/>
<path style="fill:#999ea2; stroke:none;" d="M114 195L115 196L114 195M127 195L128 196L127 195M249 195L250 196L249 195M262 195L263 196L262 195z"/>
<path style="fill:#62686f; stroke:none;" d="M91.3333 196.667L91.6667 197.333L91.3333 196.667z"/>
<path style="fill:#999ea2; stroke:none;" d="M103 196L104 197L103 196z"/>
<path style="fill:#62686f; stroke:none;" d="M115 196L116 197L115 196M127 196L128 197L127 196M249 196L250 197L249 196M261 196L262 197L261 196z"/>
<path style="fill:#999ea2; stroke:none;" d="M273 196L274 197L273 196z"/>
<path style="fill:#62686f; stroke:none;" d="M285 196L286 197L285 196M103.333 197.667L103.667 198.333L103.333 197.667z"/>
<path style="fill:#999ea2; stroke:none;" d="M115 197L116 198L115 197M128 197L129 198L128 197M248 197L249 198L248 197M261 197L262 198L261 197z"/>
<path style="fill:#62686f; stroke:none;" d="M273 197L274 198L273 197z"/>
<path style="fill:#999ea2; stroke:none;" d="M285.333 197.667L285.667 198.333L285.333 197.667M91 198L92 199L91 198z"/>
<path style="fill:#62686f; stroke:none;" d="M116 198L117 199L116 198M128 198L129 199L128 198M260 198L261 199L260 198z"/>
<path style="fill:#999ea2; stroke:none;" d="M272.333 198.667L272.667 199.333L272.333 198.667M104 199L105 200L104 199M116.333 199.667L116.667 200.333L116.333 199.667M129 199L130 200L129 199M247 199L248 200L247 199M260 199L261 200L260 199z"/>
<path style="fill:#62686f; stroke:none;" d="M284 199L285 200L284 199z"/>
<path style="fill:#999ea2; stroke:none;" d="M332 199L332 200L340 200L332 199z"/>
<path style="fill:#62686f; stroke:none;" d="M92 200L93 201L92 200M104 200L105 201L104 200z"/>
<path style="fill:#999ea2; stroke:none;" d="M246 200L247 201L246 200z"/>
<path style="fill:#62686f; stroke:none;" d="M259 200L260 201L259 200M272 200L273 201L272 200z"/>
<path style="fill:#999ea2; stroke:none;" d="M284 200L285 201L284 200M324.667 200.333L325.333 200.667L324.667 200.333z"/>
<path style="fill:#62686f; stroke:none;" d="M326 200L326 201L330 201L326 200M342 200L342 201L345 201L342 200z"/>
<path style="fill:#999ea2; stroke:none;" d="M345 200L345 201L348 201L345 200M92 201L93 202L92 201M105 201L106 202L105 201M117 201L119 204L117 201z"/>
<path style="fill:#62686f; stroke:none;" d="M130 201L131 202L130 201M246 201L247 202L246 201z"/>
<path style="fill:#999ea2; stroke:none;" d="M259 201L260 202L259 201M271 201L272 202L271 201M320 201L321 202L320 201z"/>
<path style="fill:#62686f; stroke:none;" d="M321.667 201.333L322.333 201.667L321.667 201.333M349 201L350 202L349 201z"/>
<path style="fill:#999ea2; stroke:none;" d="M350.667 201.333L351.333 201.667L350.667 201.333z"/>
<path style="fill:#62686f; stroke:none;" d="M93 202L94 203L93 202M105 202L106 203L105 202M118 202L119 203L118 202z"/>
<path style="fill:#999ea2; stroke:none;" d="M131 202L132 203L131 202M245 202L246 203L245 202z"/>
<path style="fill:#62686f; stroke:none;" d="M258 202L259 203L258 202M271 202L272 203L271 202M283 202L284 203L283 202z"/>
<path style="fill:#999ea2; stroke:none;" d="M316.667 202.333L317.333 202.667L316.667 202.333z"/>
<path style="fill:#62686f; stroke:none;" d="M318 202L319 203L318 202M353 202L354 203L353 202z"/>
<path style="fill:#999ea2; stroke:none;" d="M354.667 202.333L355.333 202.667L354.667 202.333M93 203L94 204L93 203M106.333 203.667L106.667 204.333L106.333 203.667z"/>
<path style="fill:#62686f; stroke:none;" d="M131 203L132 204L131 203z"/>
<path style="fill:#999ea2; stroke:none;" d="M258 203L259 204L258 203M270 203L271 204L270 203M283 203L284 204L283 203M314 203L315 204L314 203z"/>
<path style="fill:#62686f; stroke:none;" d="M315 203L316 204L315 203M356 203L357 204L356 203z"/>
<path style="fill:#999ea2; stroke:none;" d="M357 203L358 204L357 203z"/>
<path style="fill:#62686f; stroke:none;" d="M119 204L120 205L119 204M132 204L133 205L132 204M244 204L245 205L244 204M257 204L258 205L257 204M270 204L271 205L270 204M282 204L283 205L282 204z"/>
<path style="fill:#999ea2; stroke:none;" d="M311 204L312 205L311 204z"/>
<path style="fill:#62686f; stroke:none;" d="M312 204L313 205L312 204M359 204L360 205L359 204z"/>
<path style="fill:#999ea2; stroke:none;" d="M360 204L361 205L360 204z"/>
<path style="fill:#62686f; stroke:none;" d="M94 205L95 206L94 205z"/>
<path style="fill:#999ea2; stroke:none;" d="M107.333 205.667L107.667 206.333L107.333 205.667M119 205L120 206L119 205M133 205L134 206L133 205M243 205L244 206L243 205M257 205L258 206L257 205M269 205L270 206L269 205M282 205L283 206L282 205M309 205L310 206L309 205z"/>
<path style="fill:#62686f; stroke:none;" d="M310 205L311 206L310 205M361 205L362 206L361 205z"/>
<path style="fill:#999ea2; stroke:none;" d="M362 205L363 206L362 205M94 206L95 207L94 206z"/>
<path style="fill:#62686f; stroke:none;" d="M120 206L121 207L120 206z"/>
<path style="fill:#999ea2; stroke:none;" d="M134 206L135 207L134 206M242 206L243 207L242 206z"/>
<path style="fill:#62686f; stroke:none;" d="M256 206L257 207L256 206M269 206L270 207L269 206z"/>
<path style="fill:#999ea2; stroke:none;" d="M307 206L308 207L307 206z"/>
<path style="fill:#62686f; stroke:none;" d="M308 206L309 207L308 206M363 206L364 207L363 206z"/>
<path style="fill:#999ea2; stroke:none;" d="M364 206L365 207L364 206z"/>
<path style="fill:#62686f; stroke:none;" d="M95 207L96 208L95 207z"/>
<path style="fill:#999ea2; stroke:none;" d="M108 207L109 208L108 207M120 207L121 208L120 207z"/>
<path style="fill:#62686f; stroke:none;" d="M134 207L135 208L134 207M242 207L243 208L242 207z"/>
<path style="fill:#999ea2; stroke:none;" d="M256 207L257 208L256 207M268 207L269 208L268 207z"/>
<path style="fill:#62686f; stroke:none;" d="M281 207L282 208L281 207z"/>
<path style="fill:#999ea2; stroke:none;" d="M305 207L306 208L305 207z"/>
<path style="fill:#62686f; stroke:none;" d="M306 207L307 208L306 207M365 207L366 208L365 207z"/>
<path style="fill:#999ea2; stroke:none;" d="M366 207L367 208L366 207M95 208L96 209L95 208z"/>
<path style="fill:#62686f; stroke:none;" d="M108 208L109 209L108 208z"/>
<path style="fill:#999ea2; stroke:none;" d="M121 208L122 209L121 208z"/>
<path style="fill:#62686f; stroke:none;" d="M135 208L136 209L135 208M241 208L242 209L241 208z"/>
<path style="fill:#999ea2; stroke:none;" d="M255 208L256 209L255 208z"/>
<path style="fill:#62686f; stroke:none;" d="M268 208L269 209L268 208z"/>
<path style="fill:#999ea2; stroke:none;" d="M281 208L282 209L281 208z"/>
<path style="fill:#62686f; stroke:none;" d="M304 208L305 209L304 208M367 208L368 209L367 208M96 209L97 210L96 209z"/>
<path style="fill:#999ea2; stroke:none;" d="M109 209L110 210L109 209z"/>
<path style="fill:#62686f; stroke:none;" d="M122 209L123 210L122 209z"/>
<path style="fill:#999ea2; stroke:none;" d="M136 209L137 210L136 209M240 209L241 210L240 209z"/>
<path style="fill:#62686f; stroke:none;" d="M254 209L255 210L254 209z"/>
<path style="fill:#999ea2; stroke:none;" d="M267 209L268 210L267 209z"/>
<path style="fill:#62686f; stroke:none;" d="M280 209L281 210L280 209z"/>
<path style="fill:#999ea2; stroke:none;" d="M302 209L303 210L302 209M369 209L370 210L369 209M96 210L97 211L96 210z"/>
<path style="fill:#62686f; stroke:none;" d="M109 210L110 211L109 210z"/>
<path style="fill:#999ea2; stroke:none;" d="M122 210L123 211L122 210M137 210L138 211L137 210M239 210L240 211L239 210M254 210L255 211L254 210z"/>
<path style="fill:#62686f; stroke:none;" d="M267 210L268 211L267 210z"/>
<path style="fill:#999ea2; stroke:none;" d="M280 210L281 211L280 210z"/>
<path style="fill:#62686f; stroke:none;" d="M301 210L302 211L301 210M370 210L371 211L370 210z"/>
<path style="fill:#999ea2; stroke:none;" d="M371 210L372 211L371 210z"/>
<path style="fill:#62686f; stroke:none;" d="M97 211L98 212L97 211z"/>
<path style="fill:#999ea2; stroke:none;" d="M110 211L111 212L110 211M123 211L124 212L123 211M138 211L139 212L138 211M238 211L239 212L238 211M253 211L254 212L253 211M266 211L265 213L266 211z"/>
<path style="fill:#62686f; stroke:none;" d="M279 211L280 212L279 211z"/>
<path style="fill:#999ea2; stroke:none;" d="M299 211L300 212L299 211z"/>
<path style="fill:#da4547; stroke:none;" d="M244 223L243 223C211.617 251.819 165.383 251.819 134 223L133 223C123.534 232.586 130.531 236.493 140 242.655C152.305 250.663 175.543 251.383 181.517 266C185.26 275.157 183 288.248 183 298C183 336.725 172.763 389.22 215 409.741C220.514 412.42 226.853 414.459 233 414.91C240.048 415.426 247.159 415.13 254 413.37C309.849 399.01 296 327.169 296 284C296 270.335 294.202 255.292 301.475 243C317.401 216.086 355.424 216.611 370.651 244C379.805 260.465 376 283.878 376 302L387 302C387 281.757 391.09 256.472 381.099 238C363.601 205.649 316.471 202.017 294.785 232C284.633 246.038 285 261.528 285 278L285 338C285 349.635 286.252 361.846 282.301 373C272.71 400.077 239.168 412.941 215 396.226C185.07 375.526 194 331.503 194 300C194 289.73 190.872 273.162 196.09 264C203.269 251.391 225.094 250.005 237 242.575C246.595 236.587 253.388 232.508 244 223z"/>
<path style="fill:#999ea2; stroke:none;" d="M372 211L373 212L372 211M97 212L98 213L97 212z"/>
<path style="fill:#62686f; stroke:none;" d="M110 212L111 213L110 212M124 212L126 214L124 212z"/>
<path style="fill:#999ea2; stroke:none;" d="M139 212L140 213L139 212M237 212L238 213L237 212z"/>
<path style="fill:#62686f; stroke:none;" d="M252 212L251 214L252 212M266 212L267 213L266 212z"/>
<path style="fill:#999ea2; stroke:none;" d="M279 212L280 213L279 212z"/>
<path style="fill:#62686f; stroke:none;" d="M298 212L299 213L298 212M324 212L325 213L324 212M347 212L348 213L347 212M373 212L374 213L373 212M98 213L99 214L98 213z"/>
<path style="fill:#999ea2; stroke:none;" d="M111 213L112 214L111 213M124 213L125 214L124 213M140 213L141 214L140 213M236 213L237 214L236 213M252 213L253 214L252 213z"/>
<path style="fill:#62686f; stroke:none;" d="M265 213L266 214L265 213M278 213L279 214L278 213M297 213L298 214L297 213M374 213L375 214L374 213z"/>
<path style="fill:#999ea2; stroke:none;" d="M375 213L376 214L375 213M98 214L99 215L98 214M112 214L113 215L112 214M125 214L126 215L125 214M141 214L142 215L141 214M235 214L236 215L235 214M251 214L260 222L260 221L251 214M264 214L265 215L264 214M278 214L279 215L278 214M295 214L296 215L295 214z"/>
<path style="fill:#62686f; stroke:none;" d="M296 214L297 215L296 214z"/>
<path style="fill:#999ea2; stroke:none;" d="M376 214L377 215L376 214z"/>
<path style="fill:#62686f; stroke:none;" d="M99 215L100 216L99 215M112 215L113 216L112 215z"/>
<path style="fill:#999ea2; stroke:none;" d="M124 215L125 216L124 215M142 215L143 216L142 215M234 215L235 216L234 215z"/>
<path style="fill:#62686f; stroke:none;" d="M251 215L252 216L251 215M264 215L265 216L264 215M277 215L278 216L277 215z"/>
<path style="fill:#999ea2; stroke:none;" d="M294 215L295 216L294 215z"/>
<path style="fill:#62686f; stroke:none;" d="M315 215L316 216L315 215M356 215L357 216L356 215z"/>
<path style="fill:#999ea2; stroke:none;" d="M377 215L378 216L377 215M99 216L100 217L99 216M113 216L114 217L113 216M123 216L124 217L123 216M143 216L144 217L143 216M233 216L234 217L233 216z"/>
<path style="fill:#62686f; stroke:none;" d="M252 216L253 217L252 216M263 216L264 217L263 216z"/>
<path style="fill:#999ea2; stroke:none;" d="M293 216L294 217L293 216M378 216L379 217L378 216z"/>
<path style="fill:#62686f; stroke:none;" d="M100 217L101 218L100 217z"/>
<path style="fill:#999ea2; stroke:none;" d="M114 217L115 218L114 217M122 217L123 218L122 217M144 217L145 218L144 217M232 217L233 218L232 217z"/>
<path style="fill:#62686f; stroke:none;" d="M253 217L254 218L253 217z"/>
<path style="fill:#999ea2; stroke:none;" d="M262 217L263 218L262 217M276 217L277 218L276 217M292 217L293 218L292 217z"/>
<path style="fill:#62686f; stroke:none;" d="M311 217L312 218L311 217M360 217L361 218L360 217z"/>
<path style="fill:#999ea2; stroke:none;" d="M379 217L380 218L379 217z"/>
<path style="fill:#62686f; stroke:none;" d="M114 218L115 219L114 218z"/>
<path style="fill:#999ea2; stroke:none;" d="M121 218L122 219L121 218z"/>
<path style="fill:#62686f; stroke:none;" d="M145 218L146 219L145 218M231 218L232 219L231 218M254 218L255 219L254 218M262 218L263 219L262 218M275 218L276 219L275 218z"/>
<path style="fill:#999ea2; stroke:none;" d="M291 218L292 219L291 218M380 218L381 219L380 218M101 219L102 220L101 219M115 219L116 220L115 219M120 219L121 220L120 219z"/>
<path style="fill:#62686f; stroke:none;" d="M146 219L147 220L146 219M230 219L231 220L230 219M255 219L256 220L255 219M261 219L262 220L261 219z"/>
<path style="fill:#999ea2; stroke:none;" d="M275 219L276 220L275 219M290 219L291 220L290 219M381 219L382 220L381 219z"/>
<path style="fill:#62686f; stroke:none;" d="M102 220L103 221L102 220z"/>
<path style="fill:#999ea2; stroke:none;" d="M116 220L119 222L119 221L116 220M119 220L120 221L119 220M148 220L149 221L148 220M228 220L229 221L228 220z"/>
<path style="fill:#62686f; stroke:none;" d="M256 220L257 221L256 220z"/>
<path style="fill:#999ea2; stroke:none;" d="M260 220L261 221L260 220z"/>
<path style="fill:#62686f; stroke:none;" d="M274 220L275 221L274 220z"/>
<path style="fill:#999ea2; stroke:none;" d="M289 220L290 221L289 220M382 220L383 221L382 220M102 221L103 222L102 221z"/>
<path style="fill:#62686f; stroke:none;" d="M116 221L117 222L116 221M149 221L150 222L149 221M227 221L228 222L227 221M257 221L258 222L257 221M273 221L274 222L273 221z"/>
<path style="fill:#999ea2; stroke:none;" d="M288 221L289 222L288 221M383 221L384 222L383 221M103 222L104 223L103 222z"/>
<path style="fill:#62686f; stroke:none;" d="M117 222L118 223L117 222M150 222L151 223L150 222z"/>
<path style="fill:#999ea2; stroke:none;" d="M151 222L152 223L151 222M225 222L226 223L225 222z"/>
<path style="fill:#62686f; stroke:none;" d="M226 222L227 223L226 222M258.667 222.333L259.333 222.667L258.667 222.333z"/>
<path style="fill:#999ea2; stroke:none;" d="M273 222L274 223L273 222z"/>
<path style="fill:#62686f; stroke:none;" d="M288 222L289 223L288 222M334 222L335 223L334 222M336.667 222.333L337.333 222.667L336.667 222.333z"/>
<path style="fill:#999ea2; stroke:none;" d="M384 222L385 223L384 222z"/>
<path style="fill:#62686f; stroke:none;" d="M104 223L105 224L104 223M152 223L153 224L152 223M224 223L225 224L224 223M272 223L273 224L272 223M287 223L288 224L287 223M384 223L385 224L384 223M153 224L154 225L153 224z"/>
<path style="fill:#999ea2; stroke:none;" d="M154 224L155 225L154 224M222 224L223 225L222 224z"/>
<path style="fill:#62686f; stroke:none;" d="M271 224L272 225L271 224M286 224L287 225L286 224M323 224L324 225L323 224M385 224L386 225L385 224z"/>
<path style="fill:#999ea2; stroke:none;" d="M105 225L106 226L105 225z"/>
<path style="fill:#62686f; stroke:none;" d="M155 225L156 226L155 225z"/>
<path style="fill:#999ea2; stroke:none;" d="M156 225L157 226L156 225M220 225L221 226L220 225z"/>
<path style="fill:#62686f; stroke:none;" d="M221 225L222 226L221 225z"/>
<path style="fill:#999ea2; stroke:none;" d="M271 225L272 226L271 225M285 225L286 226L285 225M386 225L387 226L386 225z"/>
<path style="fill:#62686f; stroke:none;" d="M106 226L107 227L106 226M137 226L138 227L137 226M157 226L158 227L157 226z"/>
<path style="fill:#999ea2; stroke:none;" d="M158 226L159 227L158 226M218 226L219 227L218 226z"/>
<path style="fill:#62686f; stroke:none;" d="M219 226L220 227L219 226M239 226L240 227L239 226z"/>
<path style="fill:#999ea2; stroke:none;" d="M270 226L271 227L270 226z"/>
<path style="fill:#62686f; stroke:none;" d="M318 226L319 227L318 226z"/>
<path style="fill:#999ea2; stroke:none;" d="M387 226L388 227L387 226z"/>
<path style="fill:#62686f; stroke:none;" d="M107 227L108 228L107 227M159 227L160 228L159 227z"/>
<path style="fill:#999ea2; stroke:none;" d="M160 227L161 228L160 227M216 227L217 228L216 227z"/>
<path style="fill:#62686f; stroke:none;" d="M217 227L218 228L217 227M269 227L270 228L269 227M284 227L285 228L284 227M316 227L317 228L316 227M387 227L388 228L387 227z"/>
<path style="fill:#999ea2; stroke:none;" d="M107 228L108 229L107 228z"/>
<path style="fill:#62686f; stroke:none;" d="M161 228L162 229L161 228z"/>
<path style="fill:#999ea2; stroke:none;" d="M162 228L163 229L162 228M214 228L215 229L214 228z"/>
<path style="fill:#62686f; stroke:none;" d="M215 228L216 229L215 228M268 228L269 229L268 228z"/>
<path style="fill:#999ea2; stroke:none;" d="M283 228L284 229L283 228M388 228L389 229L388 228M108 229L109 230L108 229z"/>
<path style="fill:#62686f; stroke:none;" d="M164 229L165 230L164 229z"/>
<path style="fill:#999ea2; stroke:none;" d="M165 229L166 230L165 229M211 229L212 230L211 229z"/>
<path style="fill:#62686f; stroke:none;" d="M212 229L213 230L212 229z"/>
<path style="fill:#999ea2; stroke:none;" d="M268 229L269 230L268 229M389 229L390 230L389 229M109 230L110 231L109 230z"/>
<path style="fill:#62686f; stroke:none;" d="M166.667 230.333L167.333 230.667L166.667 230.333z"/>
<path style="fill:#999ea2; stroke:none;" d="M168 230L169 231L168 230M208 230L209 231L208 230z"/>
<path style="fill:#62686f; stroke:none;" d="M209.667 230.333L210.333 230.667L209.667 230.333z"/>
<path style="fill:#999ea2; stroke:none;" d="M267 230L268 231L267 230z"/>
<path style="fill:#62686f; stroke:none;" d="M282 230L283 231L282 230M359 230L360 231L359 230M389 230L390 231L389 230M110 231L111 232L110 231M170 231L171 232L170 231z"/>
<path style="fill:#999ea2; stroke:none;" d="M171.667 231.333L172.333 231.667L171.667 231.333M204.667 231.333L205.333 231.667L204.667 231.333z"/>
<path style="fill:#62686f; stroke:none;" d="M206 231L207 232L206 231z"/>
<path style="fill:#999ea2; stroke:none;" d="M266 231L267 232L266 231M281 231L282 232L281 231M390 231L391 232L390 231z"/>
<path style="fill:#62686f; stroke:none;" d="M111 232L112 233L111 232M145 232L146 233L145 232M173.667 232.333L174.333 232.667L173.667 232.333z"/>
<path style="fill:#999ea2; stroke:none;" d="M175 232L175 233L178 233L175 232M199 232L199 233L202 233L199 232z"/>
<path style="fill:#62686f; stroke:none;" d="M202.667 232.333L203.333 232.667L202.667 232.333M231 232L232 233L231 232M265 232L266 233L265 232M281 232L282 233L281 232M390 232L391 233L390 232M112 233L113 234L112 233M179 233L179 234L182 234L179 233z"/>
<path style="fill:#999ea2; stroke:none;" d="M182 233L182 234L195 234L182 233z"/>
<path style="fill:#62686f; stroke:none;" d="M195 233L195 234L198 234L195 233M264 233L265 234L264 233z"/>
<path style="fill:#999ea2; stroke:none;" d="M280 233L281 234L280 233z"/>
<path style="fill:#62686f; stroke:none;" d="M308 233L309 234L308 233M335 233L336 234L335 233z"/>
<path style="fill:#999ea2; stroke:none;" d="M391 233L392 234L391 233z"/>
<path style="fill:#62686f; stroke:none;" d="M113 234L114 235L113 234M263 234L264 235L263 234M280 234L281 235L280 234M328.667 234.333L329.333 234.667L328.667 234.333z"/>
<path style="fill:#999ea2; stroke:none;" d="M330.667 234.333L331.333 234.667L330.667 234.333M339 234L339 235L342 235L339 234z"/>
<path style="fill:#62686f; stroke:none;" d="M342.667 234.333L343.333 234.667L342.667 234.333M391 234L392 235L391 234z"/>
<path style="fill:#999ea2; stroke:none;" d="M113 235L114 236L113 235z"/>
<path style="fill:#62686f; stroke:none;" d="M130 235L131 236L130 235M262 235L263 236L262 235z"/>
<path style="fill:#999ea2; stroke:none;" d="M279 235L280 236L279 235z"/>
<path style="fill:#62686f; stroke:none;" d="M306 235L307 236L306 235M325 235L326 236L325 235z"/>
<path style="fill:#999ea2; stroke:none;" d="M326.667 235.333L327.333 235.667L326.667 235.333M344 235L345 236L344 235z"/>
<path style="fill:#62686f; stroke:none;" d="M345 235L346 236L345 235z"/>
<path style="fill:#999ea2; stroke:none;" d="M392 235L393 236L392 235M114 236L115 237L114 236z"/>
<path style="fill:#62686f; stroke:none;" d="M152 236L153 237L152 236M224 236L225 237L224 236M261 236L258 240L261 236M279 236L280 237L279 236M323 236L324 237L323 236z"/>
<path style="fill:#999ea2; stroke:none;" d="M324 236L325 237L324 236M347 236L348 237L347 236z"/>
<path style="fill:#62686f; stroke:none;" d="M348 236L349 237L348 236M392 236L393 237L392 236z"/>
<path style="fill:#999ea2; stroke:none;" d="M115 237L116 238L115 237z"/>
<path style="fill:#62686f; stroke:none;" d="M154 237L155 238L154 237M222 237L223 238L222 237z"/>
<path style="fill:#999ea2; stroke:none;" d="M261 237L262 238L261 237M278 237L279 238L278 237z"/>
<path style="fill:#62686f; stroke:none;" d="M291 237L292 238L291 237M321 237L322 238L321 237z"/>
<path style="fill:#999ea2; stroke:none;" d="M322 237L323 238L322 237M349 237L350 238L349 237M393 237L394 238L393 237M116 238L117 239L116 238M260 238L261 239L260 238z"/>
<path style="fill:#62686f; stroke:none;" d="M278 238L279 239L278 238z"/>
<path style="fill:#999ea2; stroke:none;" d="M320 238L321 239L320 238z"/>
<path style="fill:#62686f; stroke:none;" d="M351 238L352 239L351 238M393 238L394 239L393 238z"/>
<path style="fill:#999ea2; stroke:none;" d="M117 239L118 240L117 239M259 239L260 240L259 239z"/>
<path style="fill:#62686f; stroke:none;" d="M318 239L319 240L318 239z"/>
<path style="fill:#999ea2; stroke:none;" d="M319 239L320 240L319 239M352 239L353 240L352 239M118 240L119 241L118 240z"/>
<path style="fill:#62686f; stroke:none;" d="M257 240L258 241L257 240z"/>
<path style="fill:#999ea2; stroke:none;" d="M277 240L278 241L277 240z"/>
<path style="fill:#62686f; stroke:none;" d="M317 240L318 241L317 240z"/>
<path style="fill:#999ea2; stroke:none;" d="M353 240L354 241L353 240M394 240L395 241L394 240M119 241L120 242L119 241z"/>
<path style="fill:#62686f; stroke:none;" d="M120 241L121 242L120 241M138 241L139 242L138 241M256 241L257 242L256 241M277 241L278 242L277 241M289 241L290 242L289 241M316 241L317 242L316 241z"/>
<path style="fill:#999ea2; stroke:none;" d="M354 241L356 243L354 241z"/>
<path style="fill:#62686f; stroke:none;" d="M355 241L356 242L355 241M369 241L370 242L369 241M394 241L395 242L394 241M121 242L122 243L121 242M255 242L256 243L255 242z"/>
<path style="fill:#999ea2; stroke:none;" d="M276.333 242.667L276.667 243.333L276.333 242.667z"/>
<path style="fill:#62686f; stroke:none;" d="M315 242L316 243L315 242z"/>
<path style="fill:#999ea2; stroke:none;" d="M395.333 242.667L395.667 243.333L395.333 242.667z"/>
<path style="fill:#62686f; stroke:none;" d="M122 243L123 244L122 243M254 243L255 244L254 243M314 243L315 244L314 243z"/>
<path style="fill:#999ea2; stroke:none;" d="M356 243L357 244L356 243M123 244L124 245L123 244z"/>
<path style="fill:#62686f; stroke:none;" d="M178 244L179 245L178 244M198 244L199 245L198 244M233 244L234 245L233 244z"/>
<path style="fill:#999ea2; stroke:none;" d="M253 244L254 245L253 244z"/>
<path style="fill:#62686f; stroke:none;" d="M276 244L277 245L276 244M313 244L314 245L313 244z"/>
<path style="fill:#999ea2; stroke:none;" d="M357 244L358 245L357 244z"/>
<path style="fill:#62686f; stroke:none;" d="M395 244L396 245L395 244z"/>
<path style="fill:#999ea2; stroke:none;" d="M124 245L125 246L124 245M252 245L253 246L252 245M275.333 245.667L275.667 246.333L275.333 245.667z"/>
<path style="fill:#62686f; stroke:none;" d="M358 245L359 246L358 245z"/>
<path style="fill:#999ea2; stroke:none;" d="M125 246L126 247L125 246z"/>
<path style="fill:#62686f; stroke:none;" d="M126 246L127 247L126 246M250 246L251 247L250 246M287 246L288 247L287 246z"/>
<path style="fill:#999ea2; stroke:none;" d="M312 246L313 247L312 246z"/>
<path style="fill:#62686f; stroke:none;" d="M359 246L360 247L359 246z"/>
<path style="fill:#999ea2; stroke:none;" d="M396 246L397 247L396 246z"/>
<path style="fill:#62686f; stroke:none;" d="M127 247L128 248L127 247M249 247L250 248L249 247M275.333 247.667L275.667 248.333L275.333 247.667M311 247L312 248L311 247z"/>
<path style="fill:#999ea2; stroke:none;" d="M359 247L360 248L359 247z"/>
<path style="fill:#62686f; stroke:none;" d="M396.333 247.667L396.667 248.333L396.333 247.667z"/>
<path style="fill:#999ea2; stroke:none;" d="M128 248L129 249L128 248M248 248L249 249L248 248M311 248L312 249L311 248z"/>
<path style="fill:#62686f; stroke:none;" d="M360 248L361 249L360 248z"/>
<path style="fill:#999ea2; stroke:none;" d="M129 249L130 250L129 249z"/>
<path style="fill:#62686f; stroke:none;" d="M130 249L131 250L130 249M153 249L154 250L153 249M246 249L247 250L246 249M310 249L311 250L310 249z"/>
<path style="fill:#999ea2; stroke:none;" d="M131 250L132 251L131 250M245 250L246 251L245 250M274.333 250.667L274.667 251.333L274.333 250.667M310 250L311 251L310 250z"/>
<path style="fill:#62686f; stroke:none;" d="M361 250L362 251L361 250z"/>
<path style="fill:#999ea2; stroke:none;" d="M397.333 250.667L397.667 251.333L397.333 250.667M132 251L133 252L132 251z"/>
<path style="fill:#62686f; stroke:none;" d="M133 251L134 252L133 251M243 251L244 252L243 251z"/>
<path style="fill:#999ea2; stroke:none;" d="M244 251L245 252L244 251z"/>
<path style="fill:#62686f; stroke:none;" d="M309 251L310 252L309 251z"/>
<path style="fill:#999ea2; stroke:none;" d="M134 252L135 253L134 252M242 252L243 253L242 252z"/>
<path style="fill:#62686f; stroke:none;" d="M274.333 252.667L274.667 253.333L274.333 252.667z"/>
<path style="fill:#999ea2; stroke:none;" d="M309 252L310 253L309 252z"/>
<path style="fill:#62686f; stroke:none;" d="M362 252L363 253L362 252M397 252L397 256L398 256L397 252M136 253L137 254L136 253M211 253L212 254L211 253M240 253L241 254L240 253z"/>
<path style="fill:#999ea2; stroke:none;" d="M362 253L363 254L362 253M137 254L138 255L137 254z"/>
<path style="fill:#62686f; stroke:none;" d="M138 254L139 255L138 254M169 254L170 255L169 254M238 254L239 255L238 254z"/>
<path style="fill:#999ea2; stroke:none;" d="M239 254L240 255L239 254z"/>
<path style="fill:#62686f; stroke:none;" d="M308 254L309 255L308 254z"/>
<path style="fill:#999ea2; stroke:none;" d="M139 255L140 256L139 255z"/>
<path style="fill:#62686f; stroke:none;" d="M140 255L141 256L140 255M172 255L173 256L172 255M236 255L237 256L236 255z"/>
<path style="fill:#999ea2; stroke:none;" d="M237 255L238 256L237 255M308.333 255.667L308.667 256.333L308.333 255.667z"/>
<path style="fill:#62686f; stroke:none;" d="M363 255L364 256L363 255M386 255L387 256L386 255z"/>
<path style="fill:#999ea2; stroke:none;" d="M141 256L142 257L141 256z"/>
<path style="fill:#62686f; stroke:none;" d="M142 256L143 257L142 256M174 256L175 257L174 256M234 256L235 257L234 256z"/>
<path style="fill:#999ea2; stroke:none;" d="M235 256L236 257L235 256M273 256L273 359L274 359L274 287L273 256M363 256L363 259L364 259L363 256M143 257L144 258L143 257z"/>
<path style="fill:#62686f; stroke:none;" d="M232 257L233 258L232 257z"/>
<path style="fill:#999ea2; stroke:none;" d="M233 257L234 258L233 257z"/>
<path style="fill:#62686f; stroke:none;" d="M296 257L297 258L296 257z"/>
<path style="fill:#999ea2; stroke:none;" d="M398 257L398 282L399 282L398 257M145 258L146 259L145 258z"/>
<path style="fill:#62686f; stroke:none;" d="M146 258L147 259L146 258M230 258L231 259L230 258z"/>
<path style="fill:#999ea2; stroke:none;" d="M231 258L232 259L231 258z"/>
<path style="fill:#62686f; stroke:none;" d="M307 258L307 360L308 360L308 289L307 258z"/>
<path style="fill:#999ea2; stroke:none;" d="M147 259L148 260L147 259z"/>
<path style="fill:#62686f; stroke:none;" d="M148 259L149 260L148 259M228 259L229 260L228 259z"/>
<path style="fill:#999ea2; stroke:none;" d="M229 259L230 260L229 259M149 260L150 261L149 260z"/>
<path style="fill:#62686f; stroke:none;" d="M150 260L151 261L150 260M225 260L226 261L225 260z"/>
<path style="fill:#999ea2; stroke:none;" d="M226 260L227 261L226 260z"/>
<path style="fill:#62686f; stroke:none;" d="M364 260L364 282L365 282L364 260M375 260L376 261L375 260z"/>
<path style="fill:#999ea2; stroke:none;" d="M152 261L153 262L152 261z"/>
<path style="fill:#62686f; stroke:none;" d="M153 261L154 262L153 261M223 261L224 262L223 261z"/>
<path style="fill:#999ea2; stroke:none;" d="M224 261L225 262L224 261M155 262L156 263L155 262z"/>
<path style="fill:#62686f; stroke:none;" d="M156 262L157 263L156 262M220 262L221 263L220 262z"/>
<path style="fill:#999ea2; stroke:none;" d="M221 262L222 263L221 262M158 263L159 264L158 263z"/>
<path style="fill:#62686f; stroke:none;" d="M159 263L160 264L159 263M216.667 263.333L217.333 263.667L216.667 263.333z"/>
<path style="fill:#999ea2; stroke:none;" d="M218 263L219 264L218 263M161.667 264.333L162.333 264.667L161.667 264.333z"/>
<path style="fill:#62686f; stroke:none;" d="M163 264L164 265L163 264M213 264L214 265L213 264z"/>
<path style="fill:#999ea2; stroke:none;" d="M214.667 264.333L215.333 264.667L214.667 264.333M165.667 265.333L166.333 265.667L165.667 265.333z"/>
<path style="fill:#62686f; stroke:none;" d="M167 265L168 266L167 265M209 265L210 266L209 265z"/>
<path style="fill:#999ea2; stroke:none;" d="M210.667 265.333L211.333 265.667L210.667 265.333M168 266L169 267L168 266z"/>
<path style="fill:#62686f; stroke:none;" d="M169 266L170 267L169 266M207 266L208 267L207 266z"/>
<path style="fill:#999ea2; stroke:none;" d="M208 266L209 267L208 266z"/>
<path style="fill:#62686f; stroke:none;" d="M170 267L171 268L170 267M194 267L195 268L194 267M206 267L207 268L206 267z"/>
<path style="fill:#999ea2; stroke:none;" d="M170 268L171 269L170 268M206 268L207 269L206 268z"/>
<path style="fill:#62686f; stroke:none;" d="M171 269L171 362L172 362L172 298L171 269M205.333 269.667L205.667 270.333L205.333 269.667z"/>
<path style="fill:#999ea2; stroke:none;" d="M205 271L205 359L206 359L206 298L205 271M363 282L364 283L363 282z"/>
<path style="fill:#62686f; stroke:none;" d="M398 282L399 283L398 282z"/>
<path style="fill:#999ea2; stroke:none;" d="M361 283L362 284L361 283z"/>
<path style="fill:#62686f; stroke:none;" d="M362 283L363 284L362 283M400 283L401 284L400 283z"/>
<path style="fill:#999ea2; stroke:none;" d="M401 283L402 284L401 283M359 284L360 285L359 284z"/>
<path style="fill:#62686f; stroke:none;" d="M360 284L361 285L360 284M402 284L403 285L402 284z"/>
<path style="fill:#999ea2; stroke:none;" d="M357 285L358 286L357 285z"/>
<path style="fill:#62686f; stroke:none;" d="M358 285L359 286L358 285z"/>
<path style="fill:#999ea2; stroke:none;" d="M404 285L405 286L404 285z"/>
<path style="fill:#62686f; stroke:none;" d="M356 286L357 287L356 286M405 286L406 287L405 286z"/>
<path style="fill:#999ea2; stroke:none;" d="M406 286L407 287L406 286M354 287L355 288L354 287z"/>
<path style="fill:#62686f; stroke:none;" d="M355 287L356 288L355 287M407 287L408 288L407 287z"/>
<path style="fill:#999ea2; stroke:none;" d="M353 288L354 289L353 288z"/>
<path style="fill:#62686f; stroke:none;" d="M408 288L409 289L408 288z"/>
<path style="fill:#999ea2; stroke:none;" d="M409 288L410 289L409 288z"/>
<path style="fill:#62686f; stroke:none;" d="M352 289L353 290L352 289z"/>
<path style="fill:#999ea2; stroke:none;" d="M410 289L411 290L410 289z"/>
<path style="fill:#62686f; stroke:none;" d="M351 290L352 291L351 290z"/>
<path style="fill:#999ea2; stroke:none;" d="M411 290L412 291L411 290z"/>
<path style="fill:#62686f; stroke:none;" d="M350 291L351 292L350 291z"/>
<path style="fill:#999ea2; stroke:none;" d="M412 291L413 292L412 291z"/>
<path style="fill:#62686f; stroke:none;" d="M349 292L350 293L349 292z"/>
<path style="fill:#999ea2; stroke:none;" d="M413 292L414 293L413 292z"/>
<path style="fill:#62686f; stroke:none;" d="M348 293L349 294L348 293z"/>
<path style="fill:#999ea2; stroke:none;" d="M414 293L415 294L414 293z"/>
<path style="fill:#62686f; stroke:none;" d="M347 294L348 295L347 294z"/>
<path style="fill:#999ea2; stroke:none;" d="M415 294L416 295L415 294z"/>
<path style="fill:#62686f; stroke:none;" d="M346 295L347 296L346 295M363 295L364 309L365 309L363 295M398 295L399 296L398 295z"/>
<path style="fill:#999ea2; stroke:none;" d="M416 295L417 296L416 295M345 296L346 297L345 296M359 300L364 297L359 300M398 296L398 309L399 309L399 297L409 307C408.661 301.626 402.731 297.608 398 296z"/>
<path style="fill:#62686f; stroke:none;" d="M400 296L401 297L400 296z"/>
<path style="fill:#999ea2; stroke:none;" d="M417 296L418 297L417 296M344 297L345 298L344 297z"/>
<path style="fill:#62686f; stroke:none;" d="M360 297L361 298L360 297z"/>
<path style="fill:#fefeff; stroke:none;" d="M399 297C399 310.194 408.764 322.328 401.954 335C392.275 353.009 364.83 351.433 358.939 331C355.586 319.371 364 308.777 364 297C332.435 310.402 351.325 356.949 381 357.741C412.227 358.574 428.276 312.198 399 297z"/>
<path style="fill:#62686f; stroke:none;" d="M417 297L418 298L417 297M344 298L345 299L344 298M359 298L360 299L359 298M403 298L404 299L403 298z"/>
<path style="fill:#999ea2; stroke:none;" d="M418 298L419 299L418 298z"/>
<path style="fill:#62686f; stroke:none;" d="M343 299L344 300L343 299M358 299L359 300L358 299M404 299L405 300L404 299z"/>
<path style="fill:#999ea2; stroke:none;" d="M419 299L420 300L419 299M342 300L343 301L342 300z"/>
<path style="fill:#62686f; stroke:none;" d="M357 300L358 301L357 300M405 300L406 301L405 300M419 300L420 301L419 300M342 301L343 302L342 301M356 301L357 302L356 301M406 301L407 302L406 301z"/>
<path style="fill:#999ea2; stroke:none;" d="M420 301L421 302L420 301M341 302L342 303L341 302z"/>
<path style="fill:#62686f; stroke:none;" d="M355 302L353 305L355 302z"/>
<path style="fill:#999ea2; stroke:none;" d="M355 303L356 304L355 303z"/>
<path style="fill:#62686f; stroke:none;" d="M421 303L422 304L421 303z"/>
<path style="fill:#999ea2; stroke:none;" d="M340 304L341 305L340 304M354 304L355 305L354 304M353 305L354 306L353 305z"/>
<path style="fill:#62686f; stroke:none;" d="M409 305L410 306L409 305M422 305L423 306L422 305z"/>
<path style="fill:#999ea2; stroke:none;" d="M339 306L340 307L339 306z"/>
<path style="fill:#62686f; stroke:none;" d="M352 306L353 307L352 306M339 307L340 308L339 307z"/>
<path style="fill:#999ea2; stroke:none;" d="M352 307L353 308L352 307z"/>
<path style="fill:#62686f; stroke:none;" d="M410 307L412 309L410 307z"/>
<path style="fill:#999ea2; stroke:none;" d="M423 307L424 308L423 307M338 308L339 309L338 308z"/>
<path style="fill:#62686f; stroke:none;" d="M351 308L350 311L351 311L351 308z"/>
<path style="fill:#999ea2; stroke:none;" d="M410 308L411 309L410 308z"/>
<path style="fill:#62686f; stroke:none;" d="M423 308L424 309L423 308M338 309L339 310L338 309z"/>
<path style="fill:#999ea2; stroke:none;" d="M351 309L352 310L351 309M363 309L362 312L363 312L363 309z"/>
<path style="fill:#62686f; stroke:none;" d="M398 309L399 310L398 309z"/>
<path style="fill:#999ea2; stroke:none;" d="M411.333 309.667L411.667 310.333L411.333 309.667M424.333 309.667L424.667 310.333L424.333 309.667z"/>
<path style="fill:#62686f; stroke:none;" d="M363 310L364 311L363 310z"/>
<path style="fill:#999ea2; stroke:none;" d="M399 310L402 316L403 316L399 310z"/>
<path style="fill:#62686f; stroke:none;" d="M412.333 310.667L412.667 311.333L412.333 310.667z"/>
<path style="fill:#999ea2; stroke:none;" d="M337 311L338 312L337 311M350 311L351 312L350 311z"/>
<path style="fill:#62686f; stroke:none;" d="M399 311L400 312L399 311M424 311L425 312L424 311M337.333 312.667L337.667 313.333L337.333 312.667M349 312L350 313L349 312z"/>
<path style="fill:#999ea2; stroke:none;" d="M361 312L360 315L361 315L361 312z"/>
<path style="fill:#62686f; stroke:none;" d="M400 312L401 313L400 312z"/>
<path style="fill:#999ea2; stroke:none;" d="M412 312L413 313L412 312M425.333 312.667L425.667 313.333L425.333 312.667M349.333 313.667L349.667 314.333L349.333 313.667z"/>
<path style="fill:#62686f; stroke:none;" d="M361 313L362 314L361 313M378.667 313.333L379.333 313.667L378.667 313.333z"/>
<path style="fill:#999ea2; stroke:none;" d="M380 313L380 314L383 314L380 313z"/>
<path style="fill:#62686f; stroke:none;" d="M383.667 313.333L384.333 313.667L383.667 313.333M413 313L414 314L413 313z"/>
<path style="fill:#999ea2; stroke:none;" d="M336 314L336 317L337 317L336 314z"/>
<path style="fill:#62686f; stroke:none;" d="M348.333 314.667L348.667 315.333L348.333 314.667z"/>
<path style="fill:#999ea2; stroke:none;" d="M375 316L378 315L375 316z"/>
<path style="fill:#fefeff; stroke:none;" d="M378.015 314.654C364.821 318.832 371.86 339.341 384.995 334.258C397.34 329.481 390.526 310.691 378.015 314.654z"/>
<path style="fill:#999ea2; stroke:none;" d="M385 314L386 315L385 314z"/>
<path style="fill:#62686f; stroke:none;" d="M386 314L387 315L386 314M401 314L402 315L401 314z"/>
<path style="fill:#999ea2; stroke:none;" d="M413 314L413 317L414 317L413 314z"/>
<path style="fill:#62686f; stroke:none;" d="M425.333 314.667L425.667 315.333L425.333 314.667M360 315L361 316L360 315M374 315L375 316L374 315z"/>
<path style="fill:#999ea2; stroke:none;" d="M387 315L388 316L387 315M348 316L348 321L349 321L348 316M359.333 316.667L359.667 317.333L359.333 316.667z"/>
<path style="fill:#62686f; stroke:none;" d="M373 316L374 317L373 316z"/>
<path style="fill:#999ea2; stroke:none;" d="M388 316L390 318L388 316z"/>
<path style="fill:#62686f; stroke:none;" d="M389 316L390 317L389 316M402 316L403 317L402 316M414.333 316.667L414.667 317.333L414.333 316.667M336 317L336 320L337 320L336 317M372 317L371 319L372 317z"/>
<path style="fill:#999ea2; stroke:none;" d="M403.333 317.667L403.667 318.333L403.333 317.667M426 317L426 320L427 320L426 317z"/>
<path style="fill:#62686f; stroke:none;" d="M359 318L360 319L359 318z"/>
<path style="fill:#999ea2; stroke:none;" d="M372 318L373 319L372 318M390 318L391 319L390 318M414 318L414 324L415 324L414 318z"/>
<path style="fill:#62686f; stroke:none;" d="M347 319L347 322L348 322L347 319z"/>
<path style="fill:#999ea2; stroke:none;" d="M358 319L358 323L359 323L358 319M371 319L372 320L371 319z"/>
<path style="fill:#62686f; stroke:none;" d="M391 319L392 320L391 319M403.333 319.667L403.667 320.333L403.333 319.667M370.333 320.667L370.667 321.333L370.333 320.667z"/>
<path style="fill:#999ea2; stroke:none;" d="M391.333 320.667L391.667 321.333L391.333 320.667M404 320L404 329L405 329L404 320z"/>
<path style="fill:#62686f; stroke:none;" d="M426 320L426 329L427 329L426 320z"/>
<path style="fill:#999ea2; stroke:none;" d="M347 322L347 327L348 327L347 322M370.333 322.667L370.667 323.333L370.333 322.667z"/>
<path style="fill:#62686f; stroke:none;" d="M392.333 322.667L392.667 323.333L392.333 322.667M415 322L415 327L416 327L415 322M358 323L358 327L359 327L358 323z"/>
<path style="fill:#999ea2; stroke:none;" d="M392 324L393 325L392 324M370.333 325.667L370.667 326.333L370.333 325.667z"/>
<path style="fill:#62686f; stroke:none;" d="M392.333 325.667L392.667 326.333L392.333 325.667z"/>
<path style="fill:#999ea2; stroke:none;" d="M414 325L414 331L415 331L414 325z"/>
<path style="fill:#62686f; stroke:none;" d="M347 327L347 330L348 330L347 327z"/>
<path style="fill:#999ea2; stroke:none;" d="M358 327L358 330L359 330L358 327z"/>
<path style="fill:#62686f; stroke:none;" d="M370.333 327.667L370.667 328.333L370.333 327.667z"/>
<path style="fill:#999ea2; stroke:none;" d="M391.333 327.667L391.667 328.333L391.333 327.667z"/>
<path style="fill:#62686f; stroke:none;" d="M403.333 328.667L403.667 329.333L403.333 328.667z"/>
<path style="fill:#999ea2; stroke:none;" d="M348 329L348 333L349 333L348 329M371 329L372 330L371 329z"/>
<path style="fill:#62686f; stroke:none;" d="M391 329L392 330L391 329z"/>
<path style="fill:#999ea2; stroke:none;" d="M426 329L426 332L427 332L426 329z"/>
<path style="fill:#62686f; stroke:none;" d="M336.333 330.667L336.667 331.333L336.333 330.667M359.333 330.667L359.667 331.333L359.333 330.667M371 330L372 331L371 330z"/>
<path style="fill:#999ea2; stroke:none;" d="M390 330L387 334L390 330M403.333 330.667L403.667 331.333L403.333 330.667z"/>
<path style="fill:#62686f; stroke:none;" d="M372 331L373 332L372 331M390 331L391 332L390 331M414.333 331.667L414.667 332.333L414.333 331.667z"/>
<path style="fill:#999ea2; stroke:none;" d="M336 332L336 335L337 335L336 332M359 332L361 337L362 337L359 332M373 332L374 333L373 332z"/>
<path style="fill:#62686f; stroke:none;" d="M389 332L390 333L389 332M402 332L403 333L402 332z"/>
<path style="fill:#999ea2; stroke:none;" d="M413 332L413 335L414 335L413 332z"/>
<path style="fill:#62686f; stroke:none;" d="M348.333 333.667L348.667 334.333L348.333 333.667M360 333L361 334L360 333M374 333L375 334L374 333M388 333L389 334L388 333z"/>
<path style="fill:#999ea2; stroke:none;" d="M402 333L400 338L401 338L402 333z"/>
<path style="fill:#62686f; stroke:none;" d="M425.333 333.667L425.667 334.333L425.333 333.667z"/>
<path style="fill:#999ea2; stroke:none;" d="M349.333 334.667L349.667 335.333L349.333 334.667z"/>
<path style="fill:#62686f; stroke:none;" d="M375 334L376 335L375 334z"/>
<path style="fill:#999ea2; stroke:none;" d="M376 334L377 335L376 334M385 334L386 335L385 334z"/>
<path style="fill:#62686f; stroke:none;" d="M386 334L387 335L386 334M401 334L402 335L401 334M337.333 335.667L337.667 336.333L337.333 335.667M361 335L362 336L361 335M377.667 335.333L378.333 335.667L377.667 335.333z"/>
<path style="fill:#999ea2; stroke:none;" d="M379 335L379 336L383 336L379 335z"/>
<path style="fill:#62686f; stroke:none;" d="M383.667 335.333L384.333 335.667L383.667 335.333M413 335L414 336L413 335z"/>
<path style="fill:#999ea2; stroke:none;" d="M425.333 335.667L425.667 336.333L425.333 335.667z"/>
<path style="fill:#62686f; stroke:none;" d="M349 336L350 337L349 336M400 336L401 337L400 336z"/>
<path style="fill:#999ea2; stroke:none;" d="M412 336L413 337L412 336M337 337L338 338L337 337M350 337L352 342L353 342L350 337z"/>
<path style="fill:#62686f; stroke:none;" d="M362 337L365 340L362 337M412.333 337.667L412.667 338.333L412.333 337.667M424 337L425 338L424 337z"/>
<path style="fill:#999ea2; stroke:none;" d="M362 338L363 339L362 338M399 338L400 339L399 338M411 338L410 342L411 342L411 338M424.333 338.667L424.667 339.333L424.333 338.667z"/>
<path style="fill:#62686f; stroke:none;" d="M338 339L339 340L338 339M350 339L351 340L350 339z"/>
<path style="fill:#999ea2; stroke:none;" d="M363 339L364 340L363 339z"/>
<path style="fill:#62686f; stroke:none;" d="M398 339L396 342L398 339z"/>
<path style="fill:#999ea2; stroke:none;" d="M338 340L339 341L338 340M364 340L365 341L364 340M398 340L399 341L398 340z"/>
<path style="fill:#62686f; stroke:none;" d="M411 340L412 341L411 340M423 340L424 341L423 340M339 341L340 342L339 341M351 341L352 342L351 341z"/>
<path style="fill:#999ea2; stroke:none;" d="M365 341L368 344L365 341z"/>
<path style="fill:#62686f; stroke:none;" d="M366 341L367 342L366 341z"/>
<path style="fill:#999ea2; stroke:none;" d="M397 341L398 342L397 341M423 341L424 342L423 341M339 342L340 343L339 342z"/>
<path style="fill:#62686f; stroke:none;" d="M352 342L353 343L352 342M367 342L368 343L367 342z"/>
<path style="fill:#999ea2; stroke:none;" d="M395.667 342.333L396.333 342.667L395.667 342.333M409 342L408 345L409 345L409 342M353 343L356 346L353 343z"/>
<path style="fill:#62686f; stroke:none;" d="M368 343L369 344L368 343M393 343L392 345L393 343z"/>
<path style="fill:#999ea2; stroke:none;" d="M394 343L395 344L394 343z"/>
<path style="fill:#62686f; stroke:none;" d="M409 343L410 344L409 343M422 343L423 344L422 343M340 344L341 345L340 344M353 344L354 345L353 344z"/>
<path style="fill:#999ea2; stroke:none;" d="M369 344L372 346L372 345L369 344z"/>
<path style="fill:#62686f; stroke:none;" d="M370 344L371 345L370 344z"/>
<path style="fill:#999ea2; stroke:none;" d="M393 344L394 345L393 344M422 344L423 345L422 344z"/>
<path style="fill:#62686f; stroke:none;" d="M354 345L355 346L354 345M372 345L373 346L372 345M389 345L390 346L389 345z"/>
<path style="fill:#999ea2; stroke:none;" d="M390.667 345.333L391.333 345.667L390.667 345.333M407 345L402 351L407 345z"/>
<path style="fill:#62686f; stroke:none;" d="M421 345L422 346L421 345z"/>
<path style="fill:#999ea2; stroke:none;" d="M341 346L342 347L341 346z"/>
<path style="fill:#62686f; stroke:none;" d="M355 346L356 347L355 346z"/>
<path style="fill:#999ea2; stroke:none;" d="M373.667 346.333L374.333 346.667L373.667 346.333z"/>
<path style="fill:#62686f; stroke:none;" d="M375.667 346.333L376.333 346.667L375.667 346.333M386.667 346.333L387.333 346.667L386.667 346.333z"/>
<path style="fill:#999ea2; stroke:none;" d="M388.667 346.333L389.333 346.667L388.667 346.333z"/>
<path style="fill:#62686f; stroke:none;" d="M407 346L408 347L407 346M342 347L343 348L342 347z"/>
<path style="fill:#999ea2; stroke:none;" d="M356 347L357 348L356 347M376 347L376 348L387 348L376 347z"/>
<path style="fill:#62686f; stroke:none;" d="M406 347L407 348L406 347z"/>
<path style="fill:#999ea2; stroke:none;" d="M420 347L421 348L420 347M342 348L343 349L342 348M357 348L358 349L357 348z"/>
<path style="fill:#62686f; stroke:none;" d="M405 348L406 349L405 348M419 348L420 349L419 348M343 349L344 350L343 349z"/>
<path style="fill:#999ea2; stroke:none;" d="M358 349L359 350L358 349z"/>
<path style="fill:#62686f; stroke:none;" d="M404 349L405 350L404 349z"/>
<path style="fill:#999ea2; stroke:none;" d="M419 349L420 350L419 349z"/>
<path style="fill:#62686f; stroke:none;" d="M359 350L362 353L359 350z"/>
<path style="fill:#999ea2; stroke:none;" d="M360 350L361 351L360 350z"/>
<path style="fill:#62686f; stroke:none;" d="M403 350L404 351L403 350M418 350L419 351L418 350z"/>
<path style="fill:#999ea2; stroke:none;" d="M344 351L345 352L344 351M361 351L362 352L361 351M401 351L402 352L401 351z"/>
<path style="fill:#62686f; stroke:none;" d="M417 351L418 352L417 351M345 352L346 353L345 352z"/>
<path style="fill:#999ea2; stroke:none;" d="M362 352L363 353L362 352M399 352L393 355L393 356L400 353L399 352z"/>
<path style="fill:#62686f; stroke:none;" d="M400 352L401 353L400 352z"/>
<path style="fill:#999ea2; stroke:none;" d="M417 352L418 353L417 352z"/>
<path style="fill:#62686f; stroke:none;" d="M346 353L347 354L346 353M363 353L364 354L363 353z"/>
<path style="fill:#999ea2; stroke:none;" d="M364 353L365 354L364 353z"/>
<path style="fill:#62686f; stroke:none;" d="M399 353L400 354L399 353z"/>
<path style="fill:#999ea2; stroke:none;" d="M416 353L417 354L416 353z"/>
<path style="fill:#62686f; stroke:none;" d="M347 354L348 355L347 354M365 354L366 355L365 354z"/>
<path style="fill:#999ea2; stroke:none;" d="M366 354L367 355L366 354z"/>
<path style="fill:#62686f; stroke:none;" d="M397 354L398 355L397 354z"/>
<path style="fill:#999ea2; stroke:none;" d="M415 354L416 355L415 354z"/>
<path style="fill:#62686f; stroke:none;" d="M348 355L351 358L348 355M367 355L368 356L367 355z"/>
<path style="fill:#999ea2; stroke:none;" d="M368 355L368 356L372 357L372 356L368 355z"/>
<path style="fill:#62686f; stroke:none;" d="M395 355L396 356L395 355M414 355L415 356L414 355z"/>
<path style="fill:#999ea2; stroke:none;" d="M348 356L349 357L348 356z"/>
<path style="fill:#62686f; stroke:none;" d="M369 356L370 357L369 356z"/>
<path style="fill:#999ea2; stroke:none;" d="M390.667 356.333L391.333 356.667L390.667 356.333z"/>
<path style="fill:#62686f; stroke:none;" d="M392.667 356.333L393.333 356.667L392.667 356.333M413 356L414 357L413 356z"/>
<path style="fill:#999ea2; stroke:none;" d="M349 357L350 358L349 357z"/>
<path style="fill:#62686f; stroke:none;" d="M372.667 357.333L373.333 357.667L372.667 357.333z"/>
<path style="fill:#999ea2; stroke:none;" d="M374 357L374 358L379 358L374 357M384 357L384 358L389 358L384 357z"/>
<path style="fill:#62686f; stroke:none;" d="M389.667 357.333L390.333 357.667L389.667 357.333M412 357L413 358L412 357M351 358L352 359L351 358M377 358L377 359L386 359L377 358z"/>
<path style="fill:#999ea2; stroke:none;" d="M411 358L412 359L411 358z"/>
<path style="fill:#62686f; stroke:none;" d="M205 359L205 363L206 363L205 359M273 359L273 364L274 364L273 359M352 359L353 360L352 359z"/>
<path style="fill:#999ea2; stroke:none;" d="M410 359L411 360L410 359M307 360L307 366L308 366L307 360M353 360L354 361L353 360z"/>
<path style="fill:#62686f; stroke:none;" d="M408 360L409 361L408 360z"/>
<path style="fill:#999ea2; stroke:none;" d="M409 360L410 361L409 360M354 361L355 362L354 361z"/>
<path style="fill:#62686f; stroke:none;" d="M407 361L408 362L407 361z"/>
<path style="fill:#999ea2; stroke:none;" d="M171 362L171 367L172 367L171 362z"/>
<path style="fill:#62686f; stroke:none;" d="M356 362L357 363L356 362z"/>
<path style="fill:#999ea2; stroke:none;" d="M406 362L407 363L406 362M357 363L358 364L357 363z"/>
<path style="fill:#62686f; stroke:none;" d="M358 363L359 364L358 363M404 363L405 364L404 363M284 364L285 365L284 364z"/>
<path style="fill:#999ea2; stroke:none;" d="M359 364L360 365L359 364z"/>
<path style="fill:#62686f; stroke:none;" d="M402 364L403 365L402 364z"/>
<path style="fill:#999ea2; stroke:none;" d="M403 364L404 365L403 364M206 365L207 366L206 365M272.333 365.667L272.667 366.333L272.333 365.667M361 365L362 366L361 365z"/>
<path style="fill:#62686f; stroke:none;" d="M362 365L363 366L362 365M400 365L401 366L400 365z"/>
<path style="fill:#999ea2; stroke:none;" d="M401 365L402 366L401 365z"/>
<path style="fill:#62686f; stroke:none;" d="M206.333 366.667L206.667 367.333L206.333 366.667M295 366L296 367L295 366z"/>
<path style="fill:#999ea2; stroke:none;" d="M363 366L364 367L363 366z"/>
<path style="fill:#62686f; stroke:none;" d="M364 366L365 367L364 366M398 366L399 367L398 366z"/>
<path style="fill:#999ea2; stroke:none;" d="M399 366L400 367L399 366z"/>
<path style="fill:#62686f; stroke:none;" d="M183 367L184 368L183 367M272 367L273 368L272 367z"/>
<path style="fill:#999ea2; stroke:none;" d="M365 367L366 368L365 367z"/>
<path style="fill:#62686f; stroke:none;" d="M366.667 367.333L367.333 367.667L366.667 367.333M395 367L396 368L395 367z"/>
<path style="fill:#999ea2; stroke:none;" d="M396 367L397 368L396 367z"/>
<path style="fill:#62686f; stroke:none;" d="M306.333 368.667L306.667 369.333L306.333 368.667z"/>
<path style="fill:#999ea2; stroke:none;" d="M368.667 368.333L369.333 368.667L368.667 368.333z"/>
<path style="fill:#62686f; stroke:none;" d="M370.667 368.333L371.333 368.667L370.667 368.333M391.667 368.333L392.333 368.667L391.667 368.333z"/>
<path style="fill:#999ea2; stroke:none;" d="M393 368L394 369L393 368z"/>
<path style="fill:#62686f; stroke:none;" d="M172.333 369.667L172.667 370.333L172.333 369.667M195 369L196 370L195 369z"/>
<path style="fill:#999ea2; stroke:none;" d="M207 369L208 370L207 369M271 369L272 370L271 369z"/>
<path style="fill:#62686f; stroke:none;" d="M283 369L284 370L283 369z"/>
<path style="fill:#999ea2; stroke:none;" d="M372 369L372 370L375 370L372 369z"/>
<path style="fill:#62686f; stroke:none;" d="M375 369L375 370L378 370L375 369M385 369L385 370L388 370L385 369z"/>
<path style="fill:#999ea2; stroke:none;" d="M388.667 369.333L389.333 369.667L388.667 369.333z"/>
<path style="fill:#62686f; stroke:none;" d="M207 370L208 371L207 370M271 370L272 371L271 370z"/>
<path style="fill:#999ea2; stroke:none;" d="M306.333 370.667L306.667 371.333L306.333 370.667M172.333 371.667L172.667 372.333L172.333 371.667M208 371L209 372L208 371M270.333 371.667L270.667 372.333L270.333 371.667z"/>
<path style="fill:#62686f; stroke:none;" d="M184 372L185 373L184 372M208 372L209 373L208 372z"/>
<path style="fill:#999ea2; stroke:none;" d="M209 373L210 374L209 373z"/>
<path style="fill:#62686f; stroke:none;" d="M305 373L306 374L305 373M173 374L174 375L173 374M209 374L210 375L209 374z"/>
<path style="fill:#999ea2; stroke:none;" d="M269 374L270 375L269 374M305.333 374.667L305.667 375.333L305.333 374.667M173.333 375.667L173.667 376.333L173.333 375.667M210 375L211 376L210 375z"/>
<path style="fill:#62686f; stroke:none;" d="M210 376L211 377L210 376M268 376L269 377L268 376M174.333 377.667L174.667 378.333L174.333 377.667z"/>
<path style="fill:#999ea2; stroke:none;" d="M211 377L212 378L211 377M267 377L268 378L267 377z"/>
<path style="fill:#62686f; stroke:none;" d="M304 377L305 378L304 377z"/>
<path style="fill:#999ea2; stroke:none;" d="M212 378L213 379L212 378M304 378L305 379L304 378M174 379L175 380L174 379z"/>
<path style="fill:#62686f; stroke:none;" d="M212 379L213 380L212 379M266 379L267 380L266 379M213 380L214 381L213 380M265 380L266 381L265 380M303 380L304 381L303 380M175 381L176 382L175 381M214 381L215 382L214 381z"/>
<path style="fill:#999ea2; stroke:none;" d="M264 381L265 382L264 381M303 381L304 382L303 381M175 382L176 383L175 382z"/>
<path style="fill:#62686f; stroke:none;" d="M215 382L216 383L215 382z"/>
<path style="fill:#999ea2; stroke:none;" d="M263 382L264 383L263 382z"/>
<path style="fill:#62686f; stroke:none;" d="M176 383L177 384L176 383M216 383L217 384L216 383z"/>
<path style="fill:#999ea2; stroke:none;" d="M262 383L263 384L262 383z"/>
<path style="fill:#62686f; stroke:none;" d="M302 383L303 384L302 383z"/>
<path style="fill:#999ea2; stroke:none;" d="M176 384L177 385L176 384z"/>
<path style="fill:#62686f; stroke:none;" d="M202 384L203 385L202 384M217 384L218 385L217 384M261 384L262 385L261 384z"/>
<path style="fill:#999ea2; stroke:none;" d="M302 384L303 385L302 384z"/>
<path style="fill:#62686f; stroke:none;" d="M218 385L219 386L218 385z"/>
<path style="fill:#999ea2; stroke:none;" d="M219 385L220 386L219 385z"/>
<path style="fill:#62686f; stroke:none;" d="M260 385L261 386L260 385M301 385L302 386L301 385M177 386L178 387L177 386z"/>
<path style="fill:#999ea2; stroke:none;" d="M220 386L221 387L220 386M258 386L259 387L258 386z"/>
<path style="fill:#62686f; stroke:none;" d="M259 386L260 387L259 386z"/>
<path style="fill:#999ea2; stroke:none;" d="M301 386L302 387L301 386M177 387L178 388L177 387z"/>
<path style="fill:#62686f; stroke:none;" d="M221 387L222 388L221 387z"/>
<path style="fill:#999ea2; stroke:none;" d="M222 387L223 388L222 387z"/>
<path style="fill:#62686f; stroke:none;" d="M257 387L258 388L257 387M274 387L275 388L274 387M300 387L301 388L300 387M178 388L179 389L178 388z"/>
<path style="fill:#999ea2; stroke:none;" d="M223 388L224 389L223 388M255 388L256 389L255 388M300 388L301 389L300 388M178 389L179 390L178 389z"/>
<path style="fill:#62686f; stroke:none;" d="M206 389L207 390L206 389M225 389L226 390L225 389z"/>
<path style="fill:#999ea2; stroke:none;" d="M253 389L254 390L253 389z"/>
<path style="fill:#62686f; stroke:none;" d="M299 389L300 390L299 389M179 390L180 391L179 390M227 390L228 391L227 390z"/>
<path style="fill:#999ea2; stroke:none;" d="M228 390L229 391L228 390M250 390L251 391L250 390z"/>
<path style="fill:#62686f; stroke:none;" d="M251 390L252 391L251 390z"/>
<path style="fill:#999ea2; stroke:none;" d="M299 390L300 391L299 390M179 391L180 392L179 391z"/>
<path style="fill:#62686f; stroke:none;" d="M208 391L209 392L208 391M230 391L231 392L230 391z"/>
<path style="fill:#999ea2; stroke:none;" d="M231.667 391.333L232.333 391.667L231.667 391.333M247 391L248 392L247 391z"/>
<path style="fill:#62686f; stroke:none;" d="M248 391L249 392L248 391M298 391L299 392L298 391M180 392L181 393L180 392M234 392L234 393L237 393L234 392z"/>
<path style="fill:#999ea2; stroke:none;" d="M237 392L237 393L242 393L237 392z"/>
<path style="fill:#62686f; stroke:none;" d="M242 392L242 393L245 393L242 392z"/>
<path style="fill:#999ea2; stroke:none;" d="M298 392L299 393L298 392z"/>
<path style="fill:#62686f; stroke:none;" d="M268 393L269 394L268 393M297 393L298 394L297 393z"/>
<path style="fill:#999ea2; stroke:none;" d="M181 394L182 395L181 394z"/>
<path style="fill:#62686f; stroke:none;" d="M182 395L183 396L182 395M196 395L197 396L196 395z"/>
<path style="fill:#999ea2; stroke:none;" d="M296 395L297 396L296 395M182 396L183 397L182 396z"/>
<path style="fill:#62686f; stroke:none;" d="M295 396L296 397L295 396z"/>
<path style="fill:#999ea2; stroke:none;" d="M183 397L184 398L183 397z"/>
<path style="fill:#62686f; stroke:none;" d="M184 398L185 399L184 398M279 398L280 399L279 398z"/>
<path style="fill:#999ea2; stroke:none;" d="M294 398L295 399L294 398z"/>
<path style="fill:#62686f; stroke:none;" d="M185 399L186 400L185 399M293 399L294 400L293 399z"/>
<path style="fill:#999ea2; stroke:none;" d="M185 400L186 401L185 400z"/>
<path style="fill:#62686f; stroke:none;" d="M292 400L293 401L292 400z"/>
<path style="fill:#999ea2; stroke:none;" d="M186 401L187 402L186 401z"/>
<path style="fill:#62686f; stroke:none;" d="M187 402L188 403L187 402z"/>
<path style="fill:#999ea2; stroke:none;" d="M291 402L292 403L291 402z"/>
<path style="fill:#62686f; stroke:none;" d="M188 403L189 404L188 403z"/>
<path style="fill:#999ea2; stroke:none;" d="M290 403L291 404L290 403z"/>
<path style="fill:#62686f; stroke:none;" d="M189 404L190 405L189 404M272 404L273 405L272 404z"/>
<path style="fill:#999ea2; stroke:none;" d="M289 404L290 405L289 404z"/>
<path style="fill:#62686f; stroke:none;" d="M190 405L191 406L190 405z"/>
<path style="fill:#999ea2; stroke:none;" d="M288 405L289 406L288 405z"/>
<path style="fill:#62686f; stroke:none;" d="M191 406L192 407L191 406M269 406L270 407L269 406z"/>
<path style="fill:#999ea2; stroke:none;" d="M287 406L288 407L287 406z"/>
<path style="fill:#62686f; stroke:none;" d="M192 407L193 408L192 407z"/>
<path style="fill:#999ea2; stroke:none;" d="M286 407L287 408L286 407z"/>
<path style="fill:#62686f; stroke:none;" d="M193 408L194 409L193 408z"/>
<path style="fill:#999ea2; stroke:none;" d="M285 408L286 409L285 408z"/>
<path style="fill:#62686f; stroke:none;" d="M194 409L195 410L194 409M214 409L215 410L214 409z"/>
<path style="fill:#999ea2; stroke:none;" d="M284 409L285 410L284 409z"/>
<path style="fill:#62686f; stroke:none;" d="M195 410L196 411L195 410z"/>
<path style="fill:#999ea2; stroke:none;" d="M283 410L284 411L283 410M196 411L197 412L196 411z"/>
<path style="fill:#62686f; stroke:none;" d="M281 411L282 412L281 411z"/>
<path style="fill:#999ea2; stroke:none;" d="M282 411L283 412L282 411M197 412L198 413L197 412z"/>
<path style="fill:#62686f; stroke:none;" d="M198 412L199 413L198 412M280 412L281 413L280 412M199 413L200 414L199 413M225 413L226 414L225 413M253 413L254 414L253 413z"/>
<path style="fill:#999ea2; stroke:none;" d="M279 413L280 414L279 413M200 414L201 415L200 414z"/>
<path style="fill:#62686f; stroke:none;" d="M277 414L278 415L277 414z"/>
<path style="fill:#999ea2; stroke:none;" d="M278 414L279 415L278 414M201 415L202 416L201 415z"/>
<path style="fill:#62686f; stroke:none;" d="M202 415L203 416L202 415M276 415L277 416L276 415z"/>
<path style="fill:#999ea2; stroke:none;" d="M203 416L204 417L203 416z"/>
<path style="fill:#62686f; stroke:none;" d="M274 416L275 417L274 416z"/>
<path style="fill:#999ea2; stroke:none;" d="M275 416L276 417L275 416z"/>
<path style="fill:#62686f; stroke:none;" d="M205 417L206 418L205 417z"/>
<path style="fill:#999ea2; stroke:none;" d="M273 417L274 418L273 417M206 418L207 419L206 418z"/>
<path style="fill:#62686f; stroke:none;" d="M207 418L208 419L207 418M271 418L272 419L271 418z"/>
<path style="fill:#999ea2; stroke:none;" d="M208 419L209 420L208 419z"/>
<path style="fill:#62686f; stroke:none;" d="M209 419L210 420L209 419M269 419L270 420L269 419z"/>
<path style="fill:#999ea2; stroke:none;" d="M210 420L211 421L210 420z"/>
<path style="fill:#62686f; stroke:none;" d="M211 420L212 421L211 420M267 420L268 421L267 420M213.667 421.333L214.333 421.667L213.667 421.333M264 421L265 422L264 421z"/>
<path style="fill:#999ea2; stroke:none;" d="M265 421L266 422L265 421M215 422L216 423L215 422z"/>
<path style="fill:#62686f; stroke:none;" d="M216 422L217 423L216 422M262 422L263 423L262 422z"/>
<path style="fill:#999ea2; stroke:none;" d="M263 422L264 423L263 422M218 423L219 424L218 423z"/>
<path style="fill:#62686f; stroke:none;" d="M219 423L220 424L219 423M259 423L260 424L259 423z"/>
<path style="fill:#999ea2; stroke:none;" d="M260 423L261 424L260 423M221 424L222 425L221 424z"/>
<path style="fill:#62686f; stroke:none;" d="M222.667 424.333L223.333 424.667L222.667 424.333M255 424L256 425L255 424z"/>
<path style="fill:#999ea2; stroke:none;" d="M256.667 424.333L257.333 424.667L256.667 424.333M225.667 425.333L226.333 425.667L225.667 425.333z"/>
<path style="fill:#62686f; stroke:none;" d="M227.667 425.333L228.333 425.667L227.667 425.333M250.667 425.333L251.333 425.667L250.667 425.333z"/>
<path style="fill:#999ea2; stroke:none;" d="M252.667 425.333L253.333 425.667L252.667 425.333M231 426L231 427L235 427L231 426z"/>
<path style="fill:#62686f; stroke:none;" d="M235 426L235 427L244 427L235 426z"/>
<path style="fill:#999ea2; stroke:none;" d="M244 426L244 427L248 427L244 426z"/>
</svg>
