<?xml version="1.0" standalone="no"?>
<!DOCTYPE svg PUBLIC "-//W3C//DTD SVG 20010904//EN"
 "http://www.w3.org/TR/2001/REC-SVG-20010904/DTD/svg10.dtd">
<svg version="1.0" xmlns="http://www.w3.org/2000/svg"
 width="512.000000pt" height="512.000000pt" viewBox="0 0 512.000000 512.000000"
 preserveAspectRatio="xMidYMid meet">
<metadata>
Created by potrace 1.14, written by Peter Selinger 2001-2017
</metadata>
<g transform="translate(0.000000,512.000000) scale(0.100000,-0.100000)"
fill="#000000" stroke="none">
<path d="M620 4943 c-115 -39 -201 -143 -217 -260 -4 -30 -23 -77 -51 -126
-68 -119 -134 -288 -156 -397 -3 -14 -8 -36 -11 -50 -24 -105 -27 -393 -6
-505 42 -222 121 -414 244 -594 66 -97 240 -272 337 -340 150 -105 335 -191
484 -226 76 -17 94 -27 107 -62 5 -13 9 -326 10 -696 1 -604 3 -681 19 -758
39 -188 139 -368 275 -498 142 -134 277 -206 475 -252 57 -13 292 -18 345 -7
219 46 365 121 511 265 167 163 264 366 289 601 2 21 4 368 5 772 1 700 2 738
20 792 63 183 233 292 423 273 165 -16 315 -157 347 -324 5 -29 10 -122 10
-206 l0 -153 -32 -13 c-92 -36 -209 -141 -270 -239 -75 -121 -93 -189 -92
-345 0 -117 3 -137 28 -205 72 -190 207 -325 396 -395 67 -25 88 -28 205 -29
118 -1 138 2 210 27 190 67 335 213 402 404 25 70 28 91 27 208 0 117 -3 137
-28 205 -35 92 -98 190 -162 251 -51 49 -143 111 -181 123 -23 7 -23 10 -24
179 0 169 -1 187 -14 277 -23 155 -118 334 -244 461 -166 165 -357 248 -591
254 -209 5 -364 -40 -529 -155 -204 -143 -348 -382 -375 -626 -3 -27 -5 -377
-6 -779 -1 -792 0 -787 -57 -898 -50 -100 -162 -196 -271 -232 -74 -24 -193
-28 -266 -9 -175 46 -317 194 -354 369 -7 32 -11 285 -12 702 l0 652 22 24
c16 17 49 32 108 47 403 105 743 386 925 765 104 217 145 410 140 660 -3 147
-7 177 -40 320 -28 120 -99 286 -175 410 -10 17 -21 52 -25 78 -13 104 -83
200 -180 247 -72 34 -198 34 -270 0 -180 -88 -238 -311 -124 -477 34 -48 95
-94 154 -114 56 -19 65 -27 93 -89 64 -144 86 -247 86 -410 1 -146 -14 -232
-61 -350 -90 -229 -289 -435 -509 -529 -159 -68 -358 -94 -528 -70 -313 45
-600 265 -734 564 -97 217 -106 488 -22 717 42 114 68 150 120 166 87 27 162
98 201 192 8 21 14 68 14 115 -1 65 -5 90 -25 130 -32 65 -92 125 -155 154
-63 30 -170 36 -235 14z"/>
</g>
</svg>
